<?xml version="1.0" encoding="utf-8" standalone="no"?>
<!DOCTYPE svg PUBLIC "-//W3C//DTD SVG 1.1//EN"
  "http://www.w3.org/Graphics/SVG/1.1/DTD/svg11.dtd">
<!-- Created with matplotlib (http://matplotlib.org/) -->
<svg height="751.94119pt" version="1.1" viewBox="0 0 1473.817711 751.94119" width="1473.817711pt" xmlns="http://www.w3.org/2000/svg" xmlns:xlink="http://www.w3.org/1999/xlink">
 <defs>
  <style type="text/css">
*{stroke-linecap:butt;stroke-linejoin:round;}
  </style>
 </defs>
 <g id="figure_1">
  <g id="patch_1">
   <path d="M 0 751.94119 
L 1473.817711 751.94119 
L 1473.817711 0 
L 0 0 
z
" style="fill:#ffffff;"/>
  </g>
  <g id="axes_1">
   <g id="patch_2">
    <path d="M 95.117711 638.638125 
L 1434.317711 638.638125 
L 1434.317711 51.118125 
L 95.117711 51.118125 
z
" style="fill:#e5e5e5;"/>
   </g>
   <g id="matplotlib.axis_1">
    <g id="xtick_1">
     <g id="line2d_1">
      <path clip-path="url(#pe9dde3ea00)" d="M 100.261937 638.638125 
L 100.261937 51.118125 
" style="fill:none;stroke:#ffffff;stroke-linecap:square;stroke-width:0.8;"/>
     </g>
     <g id="line2d_2">
      <defs>
       <path d="M 0 0 
L 0 3.5 
" id="m408e88c158" style="stroke:#555555;stroke-width:0.8;"/>
      </defs>
      <g>
       <use style="fill:#555555;stroke:#555555;stroke-width:0.8;" x="100.261937" xlink:href="#m408e88c158" y="638.638125"/>
      </g>
     </g>
     <g id="text_1">
      <!-- Thu 07:00 PM -->
      <defs>
       <path d="M -0.296875 72.90625 
L 61.375 72.90625 
L 61.375 64.59375 
L 35.5 64.59375 
L 35.5 0 
L 25.59375 0 
L 25.59375 64.59375 
L -0.296875 64.59375 
z
" id="DejaVuSans-54"/>
       <path d="M 54.890625 33.015625 
L 54.890625 0 
L 45.90625 0 
L 45.90625 32.71875 
Q 45.90625 40.484375 42.875 44.328125 
Q 39.84375 48.1875 33.796875 48.1875 
Q 26.515625 48.1875 22.3125 43.546875 
Q 18.109375 38.921875 18.109375 30.90625 
L 18.109375 0 
L 9.078125 0 
L 9.078125 75.984375 
L 18.109375 75.984375 
L 18.109375 46.1875 
Q 21.34375 51.125 25.703125 53.5625 
Q 30.078125 56 35.796875 56 
Q 45.21875 56 50.046875 50.171875 
Q 54.890625 44.34375 54.890625 33.015625 
z
" id="DejaVuSans-68"/>
       <path d="M 8.5 21.578125 
L 8.5 54.6875 
L 17.484375 54.6875 
L 17.484375 21.921875 
Q 17.484375 14.15625 20.5 10.265625 
Q 23.53125 6.390625 29.59375 6.390625 
Q 36.859375 6.390625 41.078125 11.03125 
Q 45.3125 15.671875 45.3125 23.6875 
L 45.3125 54.6875 
L 54.296875 54.6875 
L 54.296875 0 
L 45.3125 0 
L 45.3125 8.40625 
Q 42.046875 3.421875 37.71875 1 
Q 33.40625 -1.421875 27.6875 -1.421875 
Q 18.265625 -1.421875 13.375 4.4375 
Q 8.5 10.296875 8.5 21.578125 
z
M 31.109375 56 
z
" id="DejaVuSans-75"/>
       <path id="DejaVuSans-20"/>
       <path d="M 31.78125 66.40625 
Q 24.171875 66.40625 20.328125 58.90625 
Q 16.5 51.421875 16.5 36.375 
Q 16.5 21.390625 20.328125 13.890625 
Q 24.171875 6.390625 31.78125 6.390625 
Q 39.453125 6.390625 43.28125 13.890625 
Q 47.125 21.390625 47.125 36.375 
Q 47.125 51.421875 43.28125 58.90625 
Q 39.453125 66.40625 31.78125 66.40625 
z
M 31.78125 74.21875 
Q 44.046875 74.21875 50.515625 64.515625 
Q 56.984375 54.828125 56.984375 36.375 
Q 56.984375 17.96875 50.515625 8.265625 
Q 44.046875 -1.421875 31.78125 -1.421875 
Q 19.53125 -1.421875 13.0625 8.265625 
Q 6.59375 17.96875 6.59375 36.375 
Q 6.59375 54.828125 13.0625 64.515625 
Q 19.53125 74.21875 31.78125 74.21875 
z
" id="DejaVuSans-30"/>
       <path d="M 8.203125 72.90625 
L 55.078125 72.90625 
L 55.078125 68.703125 
L 28.609375 0 
L 18.3125 0 
L 43.21875 64.59375 
L 8.203125 64.59375 
z
" id="DejaVuSans-37"/>
       <path d="M 11.71875 12.40625 
L 22.015625 12.40625 
L 22.015625 0 
L 11.71875 0 
z
M 11.71875 51.703125 
L 22.015625 51.703125 
L 22.015625 39.3125 
L 11.71875 39.3125 
z
" id="DejaVuSans-3a"/>
       <path d="M 19.671875 64.796875 
L 19.671875 37.40625 
L 32.078125 37.40625 
Q 38.96875 37.40625 42.71875 40.96875 
Q 46.484375 44.53125 46.484375 51.125 
Q 46.484375 57.671875 42.71875 61.234375 
Q 38.96875 64.796875 32.078125 64.796875 
z
M 9.8125 72.90625 
L 32.078125 72.90625 
Q 44.34375 72.90625 50.609375 67.359375 
Q 56.890625 61.8125 56.890625 51.125 
Q 56.890625 40.328125 50.609375 34.8125 
Q 44.34375 29.296875 32.078125 29.296875 
L 19.671875 29.296875 
L 19.671875 0 
L 9.8125 0 
z
" id="DejaVuSans-50"/>
       <path d="M 9.8125 72.90625 
L 24.515625 72.90625 
L 43.109375 23.296875 
L 61.8125 72.90625 
L 76.515625 72.90625 
L 76.515625 0 
L 66.890625 0 
L 66.890625 64.015625 
L 48.09375 14.015625 
L 38.1875 14.015625 
L 19.390625 64.015625 
L 19.390625 0 
L 9.8125 0 
z
" id="DejaVuSans-4d"/>
      </defs>
      <g style="fill:#555555;" transform="translate(39.799219 686.526377)rotate(-30)scale(0.1 -0.1)">
       <use xlink:href="#DejaVuSans-54"/>
       <use x="61.083984" xlink:href="#DejaVuSans-68"/>
       <use x="124.462891" xlink:href="#DejaVuSans-75"/>
       <use x="187.841797" xlink:href="#DejaVuSans-20"/>
       <use x="219.628906" xlink:href="#DejaVuSans-30"/>
       <use x="283.251953" xlink:href="#DejaVuSans-37"/>
       <use x="346.875" xlink:href="#DejaVuSans-3a"/>
       <use x="380.566406" xlink:href="#DejaVuSans-30"/>
       <use x="444.189453" xlink:href="#DejaVuSans-30"/>
       <use x="507.8125" xlink:href="#DejaVuSans-20"/>
       <use x="539.599609" xlink:href="#DejaVuSans-50"/>
       <use x="599.902344" xlink:href="#DejaVuSans-4d"/>
      </g>
     </g>
    </g>
    <g id="xtick_2">
     <g id="line2d_3">
      <path clip-path="url(#pe9dde3ea00)" d="M 153.196661 638.638125 
L 153.196661 51.118125 
" style="fill:none;stroke:#ffffff;stroke-linecap:square;stroke-width:0.8;"/>
     </g>
     <g id="line2d_4">
      <g>
       <use style="fill:#555555;stroke:#555555;stroke-width:0.8;" x="153.196661" xlink:href="#m408e88c158" y="638.638125"/>
      </g>
     </g>
     <g id="text_2">
      <!-- Thu 08:00 PM -->
      <defs>
       <path d="M 31.78125 34.625 
Q 24.75 34.625 20.71875 30.859375 
Q 16.703125 27.09375 16.703125 20.515625 
Q 16.703125 13.921875 20.71875 10.15625 
Q 24.75 6.390625 31.78125 6.390625 
Q 38.8125 6.390625 42.859375 10.171875 
Q 46.921875 13.96875 46.921875 20.515625 
Q 46.921875 27.09375 42.890625 30.859375 
Q 38.875 34.625 31.78125 34.625 
z
M 21.921875 38.8125 
Q 15.578125 40.375 12.03125 44.71875 
Q 8.5 49.078125 8.5 55.328125 
Q 8.5 64.0625 14.71875 69.140625 
Q 20.953125 74.21875 31.78125 74.21875 
Q 42.671875 74.21875 48.875 69.140625 
Q 55.078125 64.0625 55.078125 55.328125 
Q 55.078125 49.078125 51.53125 44.71875 
Q 48 40.375 41.703125 38.8125 
Q 48.828125 37.15625 52.796875 32.3125 
Q 56.78125 27.484375 56.78125 20.515625 
Q 56.78125 9.90625 50.3125 4.234375 
Q 43.84375 -1.421875 31.78125 -1.421875 
Q 19.734375 -1.421875 13.25 4.234375 
Q 6.78125 9.90625 6.78125 20.515625 
Q 6.78125 27.484375 10.78125 32.3125 
Q 14.796875 37.15625 21.921875 38.8125 
z
M 18.3125 54.390625 
Q 18.3125 48.734375 21.84375 45.5625 
Q 25.390625 42.390625 31.78125 42.390625 
Q 38.140625 42.390625 41.71875 45.5625 
Q 45.3125 48.734375 45.3125 54.390625 
Q 45.3125 60.0625 41.71875 63.234375 
Q 38.140625 66.40625 31.78125 66.40625 
Q 25.390625 66.40625 21.84375 63.234375 
Q 18.3125 60.0625 18.3125 54.390625 
z
" id="DejaVuSans-38"/>
      </defs>
      <g style="fill:#555555;" transform="translate(92.733943 686.526377)rotate(-30)scale(0.1 -0.1)">
       <use xlink:href="#DejaVuSans-54"/>
       <use x="61.083984" xlink:href="#DejaVuSans-68"/>
       <use x="124.462891" xlink:href="#DejaVuSans-75"/>
       <use x="187.841797" xlink:href="#DejaVuSans-20"/>
       <use x="219.628906" xlink:href="#DejaVuSans-30"/>
       <use x="283.251953" xlink:href="#DejaVuSans-38"/>
       <use x="346.875" xlink:href="#DejaVuSans-3a"/>
       <use x="380.566406" xlink:href="#DejaVuSans-30"/>
       <use x="444.189453" xlink:href="#DejaVuSans-30"/>
       <use x="507.8125" xlink:href="#DejaVuSans-20"/>
       <use x="539.599609" xlink:href="#DejaVuSans-50"/>
       <use x="599.902344" xlink:href="#DejaVuSans-4d"/>
      </g>
     </g>
    </g>
    <g id="xtick_3">
     <g id="line2d_5">
      <path clip-path="url(#pe9dde3ea00)" d="M 206.131385 638.638125 
L 206.131385 51.118125 
" style="fill:none;stroke:#ffffff;stroke-linecap:square;stroke-width:0.8;"/>
     </g>
     <g id="line2d_6">
      <g>
       <use style="fill:#555555;stroke:#555555;stroke-width:0.8;" x="206.131385" xlink:href="#m408e88c158" y="638.638125"/>
      </g>
     </g>
     <g id="text_3">
      <!-- Thu 09:00 PM -->
      <defs>
       <path d="M 10.984375 1.515625 
L 10.984375 10.5 
Q 14.703125 8.734375 18.5 7.8125 
Q 22.3125 6.890625 25.984375 6.890625 
Q 35.75 6.890625 40.890625 13.453125 
Q 46.046875 20.015625 46.78125 33.40625 
Q 43.953125 29.203125 39.59375 26.953125 
Q 35.25 24.703125 29.984375 24.703125 
Q 19.046875 24.703125 12.671875 31.3125 
Q 6.296875 37.9375 6.296875 49.421875 
Q 6.296875 60.640625 12.9375 67.421875 
Q 19.578125 74.21875 30.609375 74.21875 
Q 43.265625 74.21875 49.921875 64.515625 
Q 56.59375 54.828125 56.59375 36.375 
Q 56.59375 19.140625 48.40625 8.859375 
Q 40.234375 -1.421875 26.421875 -1.421875 
Q 22.703125 -1.421875 18.890625 -0.6875 
Q 15.09375 0.046875 10.984375 1.515625 
z
M 30.609375 32.421875 
Q 37.25 32.421875 41.125 36.953125 
Q 45.015625 41.5 45.015625 49.421875 
Q 45.015625 57.28125 41.125 61.84375 
Q 37.25 66.40625 30.609375 66.40625 
Q 23.96875 66.40625 20.09375 61.84375 
Q 16.21875 57.28125 16.21875 49.421875 
Q 16.21875 41.5 20.09375 36.953125 
Q 23.96875 32.421875 30.609375 32.421875 
z
" id="DejaVuSans-39"/>
      </defs>
      <g style="fill:#555555;" transform="translate(145.668667 686.526377)rotate(-30)scale(0.1 -0.1)">
       <use xlink:href="#DejaVuSans-54"/>
       <use x="61.083984" xlink:href="#DejaVuSans-68"/>
       <use x="124.462891" xlink:href="#DejaVuSans-75"/>
       <use x="187.841797" xlink:href="#DejaVuSans-20"/>
       <use x="219.628906" xlink:href="#DejaVuSans-30"/>
       <use x="283.251953" xlink:href="#DejaVuSans-39"/>
       <use x="346.875" xlink:href="#DejaVuSans-3a"/>
       <use x="380.566406" xlink:href="#DejaVuSans-30"/>
       <use x="444.189453" xlink:href="#DejaVuSans-30"/>
       <use x="507.8125" xlink:href="#DejaVuSans-20"/>
       <use x="539.599609" xlink:href="#DejaVuSans-50"/>
       <use x="599.902344" xlink:href="#DejaVuSans-4d"/>
      </g>
     </g>
    </g>
    <g id="xtick_4">
     <g id="line2d_7">
      <path clip-path="url(#pe9dde3ea00)" d="M 259.06611 638.638125 
L 259.06611 51.118125 
" style="fill:none;stroke:#ffffff;stroke-linecap:square;stroke-width:0.8;"/>
     </g>
     <g id="line2d_8">
      <g>
       <use style="fill:#555555;stroke:#555555;stroke-width:0.8;" x="259.06611" xlink:href="#m408e88c158" y="638.638125"/>
      </g>
     </g>
     <g id="text_4">
      <!-- Thu 10:00 PM -->
      <defs>
       <path d="M 12.40625 8.296875 
L 28.515625 8.296875 
L 28.515625 63.921875 
L 10.984375 60.40625 
L 10.984375 69.390625 
L 28.421875 72.90625 
L 38.28125 72.90625 
L 38.28125 8.296875 
L 54.390625 8.296875 
L 54.390625 0 
L 12.40625 0 
z
" id="DejaVuSans-31"/>
      </defs>
      <g style="fill:#555555;" transform="translate(198.603392 686.526377)rotate(-30)scale(0.1 -0.1)">
       <use xlink:href="#DejaVuSans-54"/>
       <use x="61.083984" xlink:href="#DejaVuSans-68"/>
       <use x="124.462891" xlink:href="#DejaVuSans-75"/>
       <use x="187.841797" xlink:href="#DejaVuSans-20"/>
       <use x="219.628906" xlink:href="#DejaVuSans-31"/>
       <use x="283.251953" xlink:href="#DejaVuSans-30"/>
       <use x="346.875" xlink:href="#DejaVuSans-3a"/>
       <use x="380.566406" xlink:href="#DejaVuSans-30"/>
       <use x="444.189453" xlink:href="#DejaVuSans-30"/>
       <use x="507.8125" xlink:href="#DejaVuSans-20"/>
       <use x="539.599609" xlink:href="#DejaVuSans-50"/>
       <use x="599.902344" xlink:href="#DejaVuSans-4d"/>
      </g>
     </g>
    </g>
    <g id="xtick_5">
     <g id="line2d_9">
      <path clip-path="url(#pe9dde3ea00)" d="M 312.000834 638.638125 
L 312.000834 51.118125 
" style="fill:none;stroke:#ffffff;stroke-linecap:square;stroke-width:0.8;"/>
     </g>
     <g id="line2d_10">
      <g>
       <use style="fill:#555555;stroke:#555555;stroke-width:0.8;" x="312.000834" xlink:href="#m408e88c158" y="638.638125"/>
      </g>
     </g>
     <g id="text_5">
      <!-- Thu 11:00 PM -->
      <g style="fill:#555555;" transform="translate(251.538116 686.526377)rotate(-30)scale(0.1 -0.1)">
       <use xlink:href="#DejaVuSans-54"/>
       <use x="61.083984" xlink:href="#DejaVuSans-68"/>
       <use x="124.462891" xlink:href="#DejaVuSans-75"/>
       <use x="187.841797" xlink:href="#DejaVuSans-20"/>
       <use x="219.628906" xlink:href="#DejaVuSans-31"/>
       <use x="283.251953" xlink:href="#DejaVuSans-31"/>
       <use x="346.875" xlink:href="#DejaVuSans-3a"/>
       <use x="380.566406" xlink:href="#DejaVuSans-30"/>
       <use x="444.189453" xlink:href="#DejaVuSans-30"/>
       <use x="507.8125" xlink:href="#DejaVuSans-20"/>
       <use x="539.599609" xlink:href="#DejaVuSans-50"/>
       <use x="599.902344" xlink:href="#DejaVuSans-4d"/>
      </g>
     </g>
    </g>
    <g id="xtick_6">
     <g id="line2d_11">
      <path clip-path="url(#pe9dde3ea00)" d="M 364.935558 638.638125 
L 364.935558 51.118125 
" style="fill:none;stroke:#ffffff;stroke-linecap:square;stroke-width:0.8;"/>
     </g>
     <g id="line2d_12">
      <g>
       <use style="fill:#555555;stroke:#555555;stroke-width:0.8;" x="364.935558" xlink:href="#m408e88c158" y="638.638125"/>
      </g>
     </g>
     <g id="text_6">
      <!-- Fri 12:00 AM -->
      <defs>
       <path d="M 9.8125 72.90625 
L 51.703125 72.90625 
L 51.703125 64.59375 
L 19.671875 64.59375 
L 19.671875 43.109375 
L 48.578125 43.109375 
L 48.578125 34.8125 
L 19.671875 34.8125 
L 19.671875 0 
L 9.8125 0 
z
" id="DejaVuSans-46"/>
       <path d="M 41.109375 46.296875 
Q 39.59375 47.171875 37.8125 47.578125 
Q 36.03125 48 33.890625 48 
Q 26.265625 48 22.1875 43.046875 
Q 18.109375 38.09375 18.109375 28.8125 
L 18.109375 0 
L 9.078125 0 
L 9.078125 54.6875 
L 18.109375 54.6875 
L 18.109375 46.1875 
Q 20.953125 51.171875 25.484375 53.578125 
Q 30.03125 56 36.53125 56 
Q 37.453125 56 38.578125 55.875 
Q 39.703125 55.765625 41.0625 55.515625 
z
" id="DejaVuSans-72"/>
       <path d="M 9.421875 54.6875 
L 18.40625 54.6875 
L 18.40625 0 
L 9.421875 0 
z
M 9.421875 75.984375 
L 18.40625 75.984375 
L 18.40625 64.59375 
L 9.421875 64.59375 
z
" id="DejaVuSans-69"/>
       <path d="M 19.1875 8.296875 
L 53.609375 8.296875 
L 53.609375 0 
L 7.328125 0 
L 7.328125 8.296875 
Q 12.9375 14.109375 22.625 23.890625 
Q 32.328125 33.6875 34.8125 36.53125 
Q 39.546875 41.84375 41.421875 45.53125 
Q 43.3125 49.21875 43.3125 52.78125 
Q 43.3125 58.59375 39.234375 62.25 
Q 35.15625 65.921875 28.609375 65.921875 
Q 23.96875 65.921875 18.8125 64.3125 
Q 13.671875 62.703125 7.8125 59.421875 
L 7.8125 69.390625 
Q 13.765625 71.78125 18.9375 73 
Q 24.125 74.21875 28.421875 74.21875 
Q 39.75 74.21875 46.484375 68.546875 
Q 53.21875 62.890625 53.21875 53.421875 
Q 53.21875 48.921875 51.53125 44.890625 
Q 49.859375 40.875 45.40625 35.40625 
Q 44.1875 33.984375 37.640625 27.21875 
Q 31.109375 20.453125 19.1875 8.296875 
z
" id="DejaVuSans-32"/>
       <path d="M 34.1875 63.1875 
L 20.796875 26.90625 
L 47.609375 26.90625 
z
M 28.609375 72.90625 
L 39.796875 72.90625 
L 67.578125 0 
L 57.328125 0 
L 50.6875 18.703125 
L 17.828125 18.703125 
L 11.1875 0 
L 0.78125 0 
z
" id="DejaVuSans-41"/>
      </defs>
      <g style="fill:#555555;" transform="translate(309.09931 683.855284)rotate(-30)scale(0.1 -0.1)">
       <use xlink:href="#DejaVuSans-46"/>
       <use x="57.410156" xlink:href="#DejaVuSans-72"/>
       <use x="98.523438" xlink:href="#DejaVuSans-69"/>
       <use x="126.306641" xlink:href="#DejaVuSans-20"/>
       <use x="158.09375" xlink:href="#DejaVuSans-31"/>
       <use x="221.716797" xlink:href="#DejaVuSans-32"/>
       <use x="285.339844" xlink:href="#DejaVuSans-3a"/>
       <use x="319.03125" xlink:href="#DejaVuSans-30"/>
       <use x="382.654297" xlink:href="#DejaVuSans-30"/>
       <use x="446.277344" xlink:href="#DejaVuSans-20"/>
       <use x="478.064453" xlink:href="#DejaVuSans-41"/>
       <use x="546.472656" xlink:href="#DejaVuSans-4d"/>
      </g>
     </g>
    </g>
    <g id="xtick_7">
     <g id="line2d_13">
      <path clip-path="url(#pe9dde3ea00)" d="M 417.870282 638.638125 
L 417.870282 51.118125 
" style="fill:none;stroke:#ffffff;stroke-linecap:square;stroke-width:0.8;"/>
     </g>
     <g id="line2d_14">
      <g>
       <use style="fill:#555555;stroke:#555555;stroke-width:0.8;" x="417.870282" xlink:href="#m408e88c158" y="638.638125"/>
      </g>
     </g>
     <g id="text_7">
      <!-- Fri 01:00 AM -->
      <g style="fill:#555555;" transform="translate(362.034034 683.855284)rotate(-30)scale(0.1 -0.1)">
       <use xlink:href="#DejaVuSans-46"/>
       <use x="57.410156" xlink:href="#DejaVuSans-72"/>
       <use x="98.523438" xlink:href="#DejaVuSans-69"/>
       <use x="126.306641" xlink:href="#DejaVuSans-20"/>
       <use x="158.09375" xlink:href="#DejaVuSans-30"/>
       <use x="221.716797" xlink:href="#DejaVuSans-31"/>
       <use x="285.339844" xlink:href="#DejaVuSans-3a"/>
       <use x="319.03125" xlink:href="#DejaVuSans-30"/>
       <use x="382.654297" xlink:href="#DejaVuSans-30"/>
       <use x="446.277344" xlink:href="#DejaVuSans-20"/>
       <use x="478.064453" xlink:href="#DejaVuSans-41"/>
       <use x="546.472656" xlink:href="#DejaVuSans-4d"/>
      </g>
     </g>
    </g>
    <g id="xtick_8">
     <g id="line2d_15">
      <path clip-path="url(#pe9dde3ea00)" d="M 470.805007 638.638125 
L 470.805007 51.118125 
" style="fill:none;stroke:#ffffff;stroke-linecap:square;stroke-width:0.8;"/>
     </g>
     <g id="line2d_16">
      <g>
       <use style="fill:#555555;stroke:#555555;stroke-width:0.8;" x="470.805007" xlink:href="#m408e88c158" y="638.638125"/>
      </g>
     </g>
     <g id="text_8">
      <!-- Fri 02:00 AM -->
      <g style="fill:#555555;" transform="translate(414.968759 683.855284)rotate(-30)scale(0.1 -0.1)">
       <use xlink:href="#DejaVuSans-46"/>
       <use x="57.410156" xlink:href="#DejaVuSans-72"/>
       <use x="98.523438" xlink:href="#DejaVuSans-69"/>
       <use x="126.306641" xlink:href="#DejaVuSans-20"/>
       <use x="158.09375" xlink:href="#DejaVuSans-30"/>
       <use x="221.716797" xlink:href="#DejaVuSans-32"/>
       <use x="285.339844" xlink:href="#DejaVuSans-3a"/>
       <use x="319.03125" xlink:href="#DejaVuSans-30"/>
       <use x="382.654297" xlink:href="#DejaVuSans-30"/>
       <use x="446.277344" xlink:href="#DejaVuSans-20"/>
       <use x="478.064453" xlink:href="#DejaVuSans-41"/>
       <use x="546.472656" xlink:href="#DejaVuSans-4d"/>
      </g>
     </g>
    </g>
    <g id="xtick_9">
     <g id="line2d_17">
      <path clip-path="url(#pe9dde3ea00)" d="M 523.739731 638.638125 
L 523.739731 51.118125 
" style="fill:none;stroke:#ffffff;stroke-linecap:square;stroke-width:0.8;"/>
     </g>
     <g id="line2d_18">
      <g>
       <use style="fill:#555555;stroke:#555555;stroke-width:0.8;" x="523.739731" xlink:href="#m408e88c158" y="638.638125"/>
      </g>
     </g>
     <g id="text_9">
      <!-- Fri 03:00 AM -->
      <defs>
       <path d="M 40.578125 39.3125 
Q 47.65625 37.796875 51.625 33 
Q 55.609375 28.21875 55.609375 21.1875 
Q 55.609375 10.40625 48.1875 4.484375 
Q 40.765625 -1.421875 27.09375 -1.421875 
Q 22.515625 -1.421875 17.65625 -0.515625 
Q 12.796875 0.390625 7.625 2.203125 
L 7.625 11.71875 
Q 11.71875 9.328125 16.59375 8.109375 
Q 21.484375 6.890625 26.8125 6.890625 
Q 36.078125 6.890625 40.9375 10.546875 
Q 45.796875 14.203125 45.796875 21.1875 
Q 45.796875 27.640625 41.28125 31.265625 
Q 36.765625 34.90625 28.71875 34.90625 
L 20.21875 34.90625 
L 20.21875 43.015625 
L 29.109375 43.015625 
Q 36.375 43.015625 40.234375 45.921875 
Q 44.09375 48.828125 44.09375 54.296875 
Q 44.09375 59.90625 40.109375 62.90625 
Q 36.140625 65.921875 28.71875 65.921875 
Q 24.65625 65.921875 20.015625 65.03125 
Q 15.375 64.15625 9.8125 62.3125 
L 9.8125 71.09375 
Q 15.4375 72.65625 20.34375 73.4375 
Q 25.25 74.21875 29.59375 74.21875 
Q 40.828125 74.21875 47.359375 69.109375 
Q 53.90625 64.015625 53.90625 55.328125 
Q 53.90625 49.265625 50.4375 45.09375 
Q 46.96875 40.921875 40.578125 39.3125 
z
" id="DejaVuSans-33"/>
      </defs>
      <g style="fill:#555555;" transform="translate(467.903483 683.855284)rotate(-30)scale(0.1 -0.1)">
       <use xlink:href="#DejaVuSans-46"/>
       <use x="57.410156" xlink:href="#DejaVuSans-72"/>
       <use x="98.523438" xlink:href="#DejaVuSans-69"/>
       <use x="126.306641" xlink:href="#DejaVuSans-20"/>
       <use x="158.09375" xlink:href="#DejaVuSans-30"/>
       <use x="221.716797" xlink:href="#DejaVuSans-33"/>
       <use x="285.339844" xlink:href="#DejaVuSans-3a"/>
       <use x="319.03125" xlink:href="#DejaVuSans-30"/>
       <use x="382.654297" xlink:href="#DejaVuSans-30"/>
       <use x="446.277344" xlink:href="#DejaVuSans-20"/>
       <use x="478.064453" xlink:href="#DejaVuSans-41"/>
       <use x="546.472656" xlink:href="#DejaVuSans-4d"/>
      </g>
     </g>
    </g>
    <g id="xtick_10">
     <g id="line2d_19">
      <path clip-path="url(#pe9dde3ea00)" d="M 576.674455 638.638125 
L 576.674455 51.118125 
" style="fill:none;stroke:#ffffff;stroke-linecap:square;stroke-width:0.8;"/>
     </g>
     <g id="line2d_20">
      <g>
       <use style="fill:#555555;stroke:#555555;stroke-width:0.8;" x="576.674455" xlink:href="#m408e88c158" y="638.638125"/>
      </g>
     </g>
     <g id="text_10">
      <!-- Fri 04:00 AM -->
      <defs>
       <path d="M 37.796875 64.3125 
L 12.890625 25.390625 
L 37.796875 25.390625 
z
M 35.203125 72.90625 
L 47.609375 72.90625 
L 47.609375 25.390625 
L 58.015625 25.390625 
L 58.015625 17.1875 
L 47.609375 17.1875 
L 47.609375 0 
L 37.796875 0 
L 37.796875 17.1875 
L 4.890625 17.1875 
L 4.890625 26.703125 
z
" id="DejaVuSans-34"/>
      </defs>
      <g style="fill:#555555;" transform="translate(520.838207 683.855284)rotate(-30)scale(0.1 -0.1)">
       <use xlink:href="#DejaVuSans-46"/>
       <use x="57.410156" xlink:href="#DejaVuSans-72"/>
       <use x="98.523438" xlink:href="#DejaVuSans-69"/>
       <use x="126.306641" xlink:href="#DejaVuSans-20"/>
       <use x="158.09375" xlink:href="#DejaVuSans-30"/>
       <use x="221.716797" xlink:href="#DejaVuSans-34"/>
       <use x="285.339844" xlink:href="#DejaVuSans-3a"/>
       <use x="319.03125" xlink:href="#DejaVuSans-30"/>
       <use x="382.654297" xlink:href="#DejaVuSans-30"/>
       <use x="446.277344" xlink:href="#DejaVuSans-20"/>
       <use x="478.064453" xlink:href="#DejaVuSans-41"/>
       <use x="546.472656" xlink:href="#DejaVuSans-4d"/>
      </g>
     </g>
    </g>
    <g id="xtick_11">
     <g id="line2d_21">
      <path clip-path="url(#pe9dde3ea00)" d="M 629.60918 638.638125 
L 629.60918 51.118125 
" style="fill:none;stroke:#ffffff;stroke-linecap:square;stroke-width:0.8;"/>
     </g>
     <g id="line2d_22">
      <g>
       <use style="fill:#555555;stroke:#555555;stroke-width:0.8;" x="629.60918" xlink:href="#m408e88c158" y="638.638125"/>
      </g>
     </g>
     <g id="text_11">
      <!-- Fri 05:00 AM -->
      <defs>
       <path d="M 10.796875 72.90625 
L 49.515625 72.90625 
L 49.515625 64.59375 
L 19.828125 64.59375 
L 19.828125 46.734375 
Q 21.96875 47.46875 24.109375 47.828125 
Q 26.265625 48.1875 28.421875 48.1875 
Q 40.625 48.1875 47.75 41.5 
Q 54.890625 34.8125 54.890625 23.390625 
Q 54.890625 11.625 47.5625 5.09375 
Q 40.234375 -1.421875 26.90625 -1.421875 
Q 22.3125 -1.421875 17.546875 -0.640625 
Q 12.796875 0.140625 7.71875 1.703125 
L 7.71875 11.625 
Q 12.109375 9.234375 16.796875 8.0625 
Q 21.484375 6.890625 26.703125 6.890625 
Q 35.15625 6.890625 40.078125 11.328125 
Q 45.015625 15.765625 45.015625 23.390625 
Q 45.015625 31 40.078125 35.4375 
Q 35.15625 39.890625 26.703125 39.890625 
Q 22.75 39.890625 18.8125 39.015625 
Q 14.890625 38.140625 10.796875 36.28125 
z
" id="DejaVuSans-35"/>
      </defs>
      <g style="fill:#555555;" transform="translate(573.772932 683.855284)rotate(-30)scale(0.1 -0.1)">
       <use xlink:href="#DejaVuSans-46"/>
       <use x="57.410156" xlink:href="#DejaVuSans-72"/>
       <use x="98.523438" xlink:href="#DejaVuSans-69"/>
       <use x="126.306641" xlink:href="#DejaVuSans-20"/>
       <use x="158.09375" xlink:href="#DejaVuSans-30"/>
       <use x="221.716797" xlink:href="#DejaVuSans-35"/>
       <use x="285.339844" xlink:href="#DejaVuSans-3a"/>
       <use x="319.03125" xlink:href="#DejaVuSans-30"/>
       <use x="382.654297" xlink:href="#DejaVuSans-30"/>
       <use x="446.277344" xlink:href="#DejaVuSans-20"/>
       <use x="478.064453" xlink:href="#DejaVuSans-41"/>
       <use x="546.472656" xlink:href="#DejaVuSans-4d"/>
      </g>
     </g>
    </g>
    <g id="xtick_12">
     <g id="line2d_23">
      <path clip-path="url(#pe9dde3ea00)" d="M 682.543904 638.638125 
L 682.543904 51.118125 
" style="fill:none;stroke:#ffffff;stroke-linecap:square;stroke-width:0.8;"/>
     </g>
     <g id="line2d_24">
      <g>
       <use style="fill:#555555;stroke:#555555;stroke-width:0.8;" x="682.543904" xlink:href="#m408e88c158" y="638.638125"/>
      </g>
     </g>
     <g id="text_12">
      <!-- Fri 06:00 AM -->
      <defs>
       <path d="M 33.015625 40.375 
Q 26.375 40.375 22.484375 35.828125 
Q 18.609375 31.296875 18.609375 23.390625 
Q 18.609375 15.53125 22.484375 10.953125 
Q 26.375 6.390625 33.015625 6.390625 
Q 39.65625 6.390625 43.53125 10.953125 
Q 47.40625 15.53125 47.40625 23.390625 
Q 47.40625 31.296875 43.53125 35.828125 
Q 39.65625 40.375 33.015625 40.375 
z
M 52.59375 71.296875 
L 52.59375 62.3125 
Q 48.875 64.0625 45.09375 64.984375 
Q 41.3125 65.921875 37.59375 65.921875 
Q 27.828125 65.921875 22.671875 59.328125 
Q 17.53125 52.734375 16.796875 39.40625 
Q 19.671875 43.65625 24.015625 45.921875 
Q 28.375 48.1875 33.59375 48.1875 
Q 44.578125 48.1875 50.953125 41.515625 
Q 57.328125 34.859375 57.328125 23.390625 
Q 57.328125 12.15625 50.6875 5.359375 
Q 44.046875 -1.421875 33.015625 -1.421875 
Q 20.359375 -1.421875 13.671875 8.265625 
Q 6.984375 17.96875 6.984375 36.375 
Q 6.984375 53.65625 15.1875 63.9375 
Q 23.390625 74.21875 37.203125 74.21875 
Q 40.921875 74.21875 44.703125 73.484375 
Q 48.484375 72.75 52.59375 71.296875 
z
" id="DejaVuSans-36"/>
      </defs>
      <g style="fill:#555555;" transform="translate(626.707656 683.855284)rotate(-30)scale(0.1 -0.1)">
       <use xlink:href="#DejaVuSans-46"/>
       <use x="57.410156" xlink:href="#DejaVuSans-72"/>
       <use x="98.523438" xlink:href="#DejaVuSans-69"/>
       <use x="126.306641" xlink:href="#DejaVuSans-20"/>
       <use x="158.09375" xlink:href="#DejaVuSans-30"/>
       <use x="221.716797" xlink:href="#DejaVuSans-36"/>
       <use x="285.339844" xlink:href="#DejaVuSans-3a"/>
       <use x="319.03125" xlink:href="#DejaVuSans-30"/>
       <use x="382.654297" xlink:href="#DejaVuSans-30"/>
       <use x="446.277344" xlink:href="#DejaVuSans-20"/>
       <use x="478.064453" xlink:href="#DejaVuSans-41"/>
       <use x="546.472656" xlink:href="#DejaVuSans-4d"/>
      </g>
     </g>
    </g>
    <g id="xtick_13">
     <g id="line2d_25">
      <path clip-path="url(#pe9dde3ea00)" d="M 735.478628 638.638125 
L 735.478628 51.118125 
" style="fill:none;stroke:#ffffff;stroke-linecap:square;stroke-width:0.8;"/>
     </g>
     <g id="line2d_26">
      <g>
       <use style="fill:#555555;stroke:#555555;stroke-width:0.8;" x="735.478628" xlink:href="#m408e88c158" y="638.638125"/>
      </g>
     </g>
     <g id="text_13">
      <!-- Fri 07:00 AM -->
      <g style="fill:#555555;" transform="translate(679.64238 683.855284)rotate(-30)scale(0.1 -0.1)">
       <use xlink:href="#DejaVuSans-46"/>
       <use x="57.410156" xlink:href="#DejaVuSans-72"/>
       <use x="98.523438" xlink:href="#DejaVuSans-69"/>
       <use x="126.306641" xlink:href="#DejaVuSans-20"/>
       <use x="158.09375" xlink:href="#DejaVuSans-30"/>
       <use x="221.716797" xlink:href="#DejaVuSans-37"/>
       <use x="285.339844" xlink:href="#DejaVuSans-3a"/>
       <use x="319.03125" xlink:href="#DejaVuSans-30"/>
       <use x="382.654297" xlink:href="#DejaVuSans-30"/>
       <use x="446.277344" xlink:href="#DejaVuSans-20"/>
       <use x="478.064453" xlink:href="#DejaVuSans-41"/>
       <use x="546.472656" xlink:href="#DejaVuSans-4d"/>
      </g>
     </g>
    </g>
    <g id="xtick_14">
     <g id="line2d_27">
      <path clip-path="url(#pe9dde3ea00)" d="M 788.413352 638.638125 
L 788.413352 51.118125 
" style="fill:none;stroke:#ffffff;stroke-linecap:square;stroke-width:0.8;"/>
     </g>
     <g id="line2d_28">
      <g>
       <use style="fill:#555555;stroke:#555555;stroke-width:0.8;" x="788.413352" xlink:href="#m408e88c158" y="638.638125"/>
      </g>
     </g>
     <g id="text_14">
      <!-- Fri 08:00 AM -->
      <g style="fill:#555555;" transform="translate(732.577104 683.855284)rotate(-30)scale(0.1 -0.1)">
       <use xlink:href="#DejaVuSans-46"/>
       <use x="57.410156" xlink:href="#DejaVuSans-72"/>
       <use x="98.523438" xlink:href="#DejaVuSans-69"/>
       <use x="126.306641" xlink:href="#DejaVuSans-20"/>
       <use x="158.09375" xlink:href="#DejaVuSans-30"/>
       <use x="221.716797" xlink:href="#DejaVuSans-38"/>
       <use x="285.339844" xlink:href="#DejaVuSans-3a"/>
       <use x="319.03125" xlink:href="#DejaVuSans-30"/>
       <use x="382.654297" xlink:href="#DejaVuSans-30"/>
       <use x="446.277344" xlink:href="#DejaVuSans-20"/>
       <use x="478.064453" xlink:href="#DejaVuSans-41"/>
       <use x="546.472656" xlink:href="#DejaVuSans-4d"/>
      </g>
     </g>
    </g>
    <g id="xtick_15">
     <g id="line2d_29">
      <path clip-path="url(#pe9dde3ea00)" d="M 841.348077 638.638125 
L 841.348077 51.118125 
" style="fill:none;stroke:#ffffff;stroke-linecap:square;stroke-width:0.8;"/>
     </g>
     <g id="line2d_30">
      <g>
       <use style="fill:#555555;stroke:#555555;stroke-width:0.8;" x="841.348077" xlink:href="#m408e88c158" y="638.638125"/>
      </g>
     </g>
     <g id="text_15">
      <!-- Fri 09:00 AM -->
      <g style="fill:#555555;" transform="translate(785.511829 683.855284)rotate(-30)scale(0.1 -0.1)">
       <use xlink:href="#DejaVuSans-46"/>
       <use x="57.410156" xlink:href="#DejaVuSans-72"/>
       <use x="98.523438" xlink:href="#DejaVuSans-69"/>
       <use x="126.306641" xlink:href="#DejaVuSans-20"/>
       <use x="158.09375" xlink:href="#DejaVuSans-30"/>
       <use x="221.716797" xlink:href="#DejaVuSans-39"/>
       <use x="285.339844" xlink:href="#DejaVuSans-3a"/>
       <use x="319.03125" xlink:href="#DejaVuSans-30"/>
       <use x="382.654297" xlink:href="#DejaVuSans-30"/>
       <use x="446.277344" xlink:href="#DejaVuSans-20"/>
       <use x="478.064453" xlink:href="#DejaVuSans-41"/>
       <use x="546.472656" xlink:href="#DejaVuSans-4d"/>
      </g>
     </g>
    </g>
    <g id="xtick_16">
     <g id="line2d_31">
      <path clip-path="url(#pe9dde3ea00)" d="M 894.282801 638.638125 
L 894.282801 51.118125 
" style="fill:none;stroke:#ffffff;stroke-linecap:square;stroke-width:0.8;"/>
     </g>
     <g id="line2d_32">
      <g>
       <use style="fill:#555555;stroke:#555555;stroke-width:0.8;" x="894.282801" xlink:href="#m408e88c158" y="638.638125"/>
      </g>
     </g>
     <g id="text_16">
      <!-- Fri 10:00 AM -->
      <g style="fill:#555555;" transform="translate(838.446553 683.855284)rotate(-30)scale(0.1 -0.1)">
       <use xlink:href="#DejaVuSans-46"/>
       <use x="57.410156" xlink:href="#DejaVuSans-72"/>
       <use x="98.523438" xlink:href="#DejaVuSans-69"/>
       <use x="126.306641" xlink:href="#DejaVuSans-20"/>
       <use x="158.09375" xlink:href="#DejaVuSans-31"/>
       <use x="221.716797" xlink:href="#DejaVuSans-30"/>
       <use x="285.339844" xlink:href="#DejaVuSans-3a"/>
       <use x="319.03125" xlink:href="#DejaVuSans-30"/>
       <use x="382.654297" xlink:href="#DejaVuSans-30"/>
       <use x="446.277344" xlink:href="#DejaVuSans-20"/>
       <use x="478.064453" xlink:href="#DejaVuSans-41"/>
       <use x="546.472656" xlink:href="#DejaVuSans-4d"/>
      </g>
     </g>
    </g>
    <g id="xtick_17">
     <g id="line2d_33">
      <path clip-path="url(#pe9dde3ea00)" d="M 947.217525 638.638125 
L 947.217525 51.118125 
" style="fill:none;stroke:#ffffff;stroke-linecap:square;stroke-width:0.8;"/>
     </g>
     <g id="line2d_34">
      <g>
       <use style="fill:#555555;stroke:#555555;stroke-width:0.8;" x="947.217525" xlink:href="#m408e88c158" y="638.638125"/>
      </g>
     </g>
     <g id="text_17">
      <!-- Fri 11:00 AM -->
      <g style="fill:#555555;" transform="translate(891.381277 683.855284)rotate(-30)scale(0.1 -0.1)">
       <use xlink:href="#DejaVuSans-46"/>
       <use x="57.410156" xlink:href="#DejaVuSans-72"/>
       <use x="98.523438" xlink:href="#DejaVuSans-69"/>
       <use x="126.306641" xlink:href="#DejaVuSans-20"/>
       <use x="158.09375" xlink:href="#DejaVuSans-31"/>
       <use x="221.716797" xlink:href="#DejaVuSans-31"/>
       <use x="285.339844" xlink:href="#DejaVuSans-3a"/>
       <use x="319.03125" xlink:href="#DejaVuSans-30"/>
       <use x="382.654297" xlink:href="#DejaVuSans-30"/>
       <use x="446.277344" xlink:href="#DejaVuSans-20"/>
       <use x="478.064453" xlink:href="#DejaVuSans-41"/>
       <use x="546.472656" xlink:href="#DejaVuSans-4d"/>
      </g>
     </g>
    </g>
    <g id="xtick_18">
     <g id="line2d_35">
      <path clip-path="url(#pe9dde3ea00)" d="M 1000.152249 638.638125 
L 1000.152249 51.118125 
" style="fill:none;stroke:#ffffff;stroke-linecap:square;stroke-width:0.8;"/>
     </g>
     <g id="line2d_36">
      <g>
       <use style="fill:#555555;stroke:#555555;stroke-width:0.8;" x="1000.152249" xlink:href="#m408e88c158" y="638.638125"/>
      </g>
     </g>
     <g id="text_18">
      <!-- Fri 12:00 PM -->
      <g style="fill:#555555;" transform="translate(945.018294 683.449815)rotate(-30)scale(0.1 -0.1)">
       <use xlink:href="#DejaVuSans-46"/>
       <use x="57.410156" xlink:href="#DejaVuSans-72"/>
       <use x="98.523438" xlink:href="#DejaVuSans-69"/>
       <use x="126.306641" xlink:href="#DejaVuSans-20"/>
       <use x="158.09375" xlink:href="#DejaVuSans-31"/>
       <use x="221.716797" xlink:href="#DejaVuSans-32"/>
       <use x="285.339844" xlink:href="#DejaVuSans-3a"/>
       <use x="319.03125" xlink:href="#DejaVuSans-30"/>
       <use x="382.654297" xlink:href="#DejaVuSans-30"/>
       <use x="446.277344" xlink:href="#DejaVuSans-20"/>
       <use x="478.064453" xlink:href="#DejaVuSans-50"/>
       <use x="538.367188" xlink:href="#DejaVuSans-4d"/>
      </g>
     </g>
    </g>
    <g id="xtick_19">
     <g id="line2d_37">
      <path clip-path="url(#pe9dde3ea00)" d="M 1053.086974 638.638125 
L 1053.086974 51.118125 
" style="fill:none;stroke:#ffffff;stroke-linecap:square;stroke-width:0.8;"/>
     </g>
     <g id="line2d_38">
      <g>
       <use style="fill:#555555;stroke:#555555;stroke-width:0.8;" x="1053.086974" xlink:href="#m408e88c158" y="638.638125"/>
      </g>
     </g>
     <g id="text_19">
      <!-- Fri 01:00 PM -->
      <g style="fill:#555555;" transform="translate(997.953018 683.449815)rotate(-30)scale(0.1 -0.1)">
       <use xlink:href="#DejaVuSans-46"/>
       <use x="57.410156" xlink:href="#DejaVuSans-72"/>
       <use x="98.523438" xlink:href="#DejaVuSans-69"/>
       <use x="126.306641" xlink:href="#DejaVuSans-20"/>
       <use x="158.09375" xlink:href="#DejaVuSans-30"/>
       <use x="221.716797" xlink:href="#DejaVuSans-31"/>
       <use x="285.339844" xlink:href="#DejaVuSans-3a"/>
       <use x="319.03125" xlink:href="#DejaVuSans-30"/>
       <use x="382.654297" xlink:href="#DejaVuSans-30"/>
       <use x="446.277344" xlink:href="#DejaVuSans-20"/>
       <use x="478.064453" xlink:href="#DejaVuSans-50"/>
       <use x="538.367188" xlink:href="#DejaVuSans-4d"/>
      </g>
     </g>
    </g>
    <g id="xtick_20">
     <g id="line2d_39">
      <path clip-path="url(#pe9dde3ea00)" d="M 1106.021698 638.638125 
L 1106.021698 51.118125 
" style="fill:none;stroke:#ffffff;stroke-linecap:square;stroke-width:0.8;"/>
     </g>
     <g id="line2d_40">
      <g>
       <use style="fill:#555555;stroke:#555555;stroke-width:0.8;" x="1106.021698" xlink:href="#m408e88c158" y="638.638125"/>
      </g>
     </g>
     <g id="text_20">
      <!-- Fri 02:00 PM -->
      <g style="fill:#555555;" transform="translate(1050.887742 683.449815)rotate(-30)scale(0.1 -0.1)">
       <use xlink:href="#DejaVuSans-46"/>
       <use x="57.410156" xlink:href="#DejaVuSans-72"/>
       <use x="98.523438" xlink:href="#DejaVuSans-69"/>
       <use x="126.306641" xlink:href="#DejaVuSans-20"/>
       <use x="158.09375" xlink:href="#DejaVuSans-30"/>
       <use x="221.716797" xlink:href="#DejaVuSans-32"/>
       <use x="285.339844" xlink:href="#DejaVuSans-3a"/>
       <use x="319.03125" xlink:href="#DejaVuSans-30"/>
       <use x="382.654297" xlink:href="#DejaVuSans-30"/>
       <use x="446.277344" xlink:href="#DejaVuSans-20"/>
       <use x="478.064453" xlink:href="#DejaVuSans-50"/>
       <use x="538.367188" xlink:href="#DejaVuSans-4d"/>
      </g>
     </g>
    </g>
    <g id="xtick_21">
     <g id="line2d_41">
      <path clip-path="url(#pe9dde3ea00)" d="M 1158.956422 638.638125 
L 1158.956422 51.118125 
" style="fill:none;stroke:#ffffff;stroke-linecap:square;stroke-width:0.8;"/>
     </g>
     <g id="line2d_42">
      <g>
       <use style="fill:#555555;stroke:#555555;stroke-width:0.8;" x="1158.956422" xlink:href="#m408e88c158" y="638.638125"/>
      </g>
     </g>
     <g id="text_21">
      <!-- Fri 03:00 PM -->
      <g style="fill:#555555;" transform="translate(1103.822467 683.449815)rotate(-30)scale(0.1 -0.1)">
       <use xlink:href="#DejaVuSans-46"/>
       <use x="57.410156" xlink:href="#DejaVuSans-72"/>
       <use x="98.523438" xlink:href="#DejaVuSans-69"/>
       <use x="126.306641" xlink:href="#DejaVuSans-20"/>
       <use x="158.09375" xlink:href="#DejaVuSans-30"/>
       <use x="221.716797" xlink:href="#DejaVuSans-33"/>
       <use x="285.339844" xlink:href="#DejaVuSans-3a"/>
       <use x="319.03125" xlink:href="#DejaVuSans-30"/>
       <use x="382.654297" xlink:href="#DejaVuSans-30"/>
       <use x="446.277344" xlink:href="#DejaVuSans-20"/>
       <use x="478.064453" xlink:href="#DejaVuSans-50"/>
       <use x="538.367188" xlink:href="#DejaVuSans-4d"/>
      </g>
     </g>
    </g>
    <g id="xtick_22">
     <g id="line2d_43">
      <path clip-path="url(#pe9dde3ea00)" d="M 1211.891146 638.638125 
L 1211.891146 51.118125 
" style="fill:none;stroke:#ffffff;stroke-linecap:square;stroke-width:0.8;"/>
     </g>
     <g id="line2d_44">
      <g>
       <use style="fill:#555555;stroke:#555555;stroke-width:0.8;" x="1211.891146" xlink:href="#m408e88c158" y="638.638125"/>
      </g>
     </g>
     <g id="text_22">
      <!-- Fri 04:00 PM -->
      <g style="fill:#555555;" transform="translate(1156.757191 683.449815)rotate(-30)scale(0.1 -0.1)">
       <use xlink:href="#DejaVuSans-46"/>
       <use x="57.410156" xlink:href="#DejaVuSans-72"/>
       <use x="98.523438" xlink:href="#DejaVuSans-69"/>
       <use x="126.306641" xlink:href="#DejaVuSans-20"/>
       <use x="158.09375" xlink:href="#DejaVuSans-30"/>
       <use x="221.716797" xlink:href="#DejaVuSans-34"/>
       <use x="285.339844" xlink:href="#DejaVuSans-3a"/>
       <use x="319.03125" xlink:href="#DejaVuSans-30"/>
       <use x="382.654297" xlink:href="#DejaVuSans-30"/>
       <use x="446.277344" xlink:href="#DejaVuSans-20"/>
       <use x="478.064453" xlink:href="#DejaVuSans-50"/>
       <use x="538.367188" xlink:href="#DejaVuSans-4d"/>
      </g>
     </g>
    </g>
    <g id="xtick_23">
     <g id="line2d_45">
      <path clip-path="url(#pe9dde3ea00)" d="M 1264.825871 638.638125 
L 1264.825871 51.118125 
" style="fill:none;stroke:#ffffff;stroke-linecap:square;stroke-width:0.8;"/>
     </g>
     <g id="line2d_46">
      <g>
       <use style="fill:#555555;stroke:#555555;stroke-width:0.8;" x="1264.825871" xlink:href="#m408e88c158" y="638.638125"/>
      </g>
     </g>
     <g id="text_23">
      <!-- Fri 05:00 PM -->
      <g style="fill:#555555;" transform="translate(1209.691915 683.449815)rotate(-30)scale(0.1 -0.1)">
       <use xlink:href="#DejaVuSans-46"/>
       <use x="57.410156" xlink:href="#DejaVuSans-72"/>
       <use x="98.523438" xlink:href="#DejaVuSans-69"/>
       <use x="126.306641" xlink:href="#DejaVuSans-20"/>
       <use x="158.09375" xlink:href="#DejaVuSans-30"/>
       <use x="221.716797" xlink:href="#DejaVuSans-35"/>
       <use x="285.339844" xlink:href="#DejaVuSans-3a"/>
       <use x="319.03125" xlink:href="#DejaVuSans-30"/>
       <use x="382.654297" xlink:href="#DejaVuSans-30"/>
       <use x="446.277344" xlink:href="#DejaVuSans-20"/>
       <use x="478.064453" xlink:href="#DejaVuSans-50"/>
       <use x="538.367188" xlink:href="#DejaVuSans-4d"/>
      </g>
     </g>
    </g>
    <g id="xtick_24">
     <g id="line2d_47">
      <path clip-path="url(#pe9dde3ea00)" d="M 1317.760595 638.638125 
L 1317.760595 51.118125 
" style="fill:none;stroke:#ffffff;stroke-linecap:square;stroke-width:0.8;"/>
     </g>
     <g id="line2d_48">
      <g>
       <use style="fill:#555555;stroke:#555555;stroke-width:0.8;" x="1317.760595" xlink:href="#m408e88c158" y="638.638125"/>
      </g>
     </g>
     <g id="text_24">
      <!-- Fri 06:00 PM -->
      <g style="fill:#555555;" transform="translate(1262.626639 683.449815)rotate(-30)scale(0.1 -0.1)">
       <use xlink:href="#DejaVuSans-46"/>
       <use x="57.410156" xlink:href="#DejaVuSans-72"/>
       <use x="98.523438" xlink:href="#DejaVuSans-69"/>
       <use x="126.306641" xlink:href="#DejaVuSans-20"/>
       <use x="158.09375" xlink:href="#DejaVuSans-30"/>
       <use x="221.716797" xlink:href="#DejaVuSans-36"/>
       <use x="285.339844" xlink:href="#DejaVuSans-3a"/>
       <use x="319.03125" xlink:href="#DejaVuSans-30"/>
       <use x="382.654297" xlink:href="#DejaVuSans-30"/>
       <use x="446.277344" xlink:href="#DejaVuSans-20"/>
       <use x="478.064453" xlink:href="#DejaVuSans-50"/>
       <use x="538.367188" xlink:href="#DejaVuSans-4d"/>
      </g>
     </g>
    </g>
    <g id="xtick_25">
     <g id="line2d_49">
      <path clip-path="url(#pe9dde3ea00)" d="M 1370.695319 638.638125 
L 1370.695319 51.118125 
" style="fill:none;stroke:#ffffff;stroke-linecap:square;stroke-width:0.8;"/>
     </g>
     <g id="line2d_50">
      <g>
       <use style="fill:#555555;stroke:#555555;stroke-width:0.8;" x="1370.695319" xlink:href="#m408e88c158" y="638.638125"/>
      </g>
     </g>
     <g id="text_25">
      <!-- Fri 07:00 PM -->
      <g style="fill:#555555;" transform="translate(1315.561364 683.449815)rotate(-30)scale(0.1 -0.1)">
       <use xlink:href="#DejaVuSans-46"/>
       <use x="57.410156" xlink:href="#DejaVuSans-72"/>
       <use x="98.523438" xlink:href="#DejaVuSans-69"/>
       <use x="126.306641" xlink:href="#DejaVuSans-20"/>
       <use x="158.09375" xlink:href="#DejaVuSans-30"/>
       <use x="221.716797" xlink:href="#DejaVuSans-37"/>
       <use x="285.339844" xlink:href="#DejaVuSans-3a"/>
       <use x="319.03125" xlink:href="#DejaVuSans-30"/>
       <use x="382.654297" xlink:href="#DejaVuSans-30"/>
       <use x="446.277344" xlink:href="#DejaVuSans-20"/>
       <use x="478.064453" xlink:href="#DejaVuSans-50"/>
       <use x="538.367188" xlink:href="#DejaVuSans-4d"/>
      </g>
     </g>
    </g>
    <g id="xtick_26">
     <g id="line2d_51">
      <path clip-path="url(#pe9dde3ea00)" d="M 1423.630043 638.638125 
L 1423.630043 51.118125 
" style="fill:none;stroke:#ffffff;stroke-linecap:square;stroke-width:0.8;"/>
     </g>
     <g id="line2d_52">
      <g>
       <use style="fill:#555555;stroke:#555555;stroke-width:0.8;" x="1423.630043" xlink:href="#m408e88c158" y="638.638125"/>
      </g>
     </g>
     <g id="text_26">
      <!-- Fri 08:00 PM -->
      <g style="fill:#555555;" transform="translate(1368.496088 683.449815)rotate(-30)scale(0.1 -0.1)">
       <use xlink:href="#DejaVuSans-46"/>
       <use x="57.410156" xlink:href="#DejaVuSans-72"/>
       <use x="98.523438" xlink:href="#DejaVuSans-69"/>
       <use x="126.306641" xlink:href="#DejaVuSans-20"/>
       <use x="158.09375" xlink:href="#DejaVuSans-30"/>
       <use x="221.716797" xlink:href="#DejaVuSans-38"/>
       <use x="285.339844" xlink:href="#DejaVuSans-3a"/>
       <use x="319.03125" xlink:href="#DejaVuSans-30"/>
       <use x="382.654297" xlink:href="#DejaVuSans-30"/>
       <use x="446.277344" xlink:href="#DejaVuSans-20"/>
       <use x="478.064453" xlink:href="#DejaVuSans-50"/>
       <use x="538.367188" xlink:href="#DejaVuSans-4d"/>
      </g>
     </g>
    </g>
    <g id="text_27">
     <!-- Time -->
     <defs>
      <path d="M 19.09375 0 
L 19.09375 5.171875 
L 28.421875 5.171875 
L 28.421875 67.09375 
L 6.984375 67.09375 
L 6.984375 55.71875 
L 0.984375 55.71875 
L 0.984375 72.90625 
L 65.71875 72.90625 
L 65.71875 55.71875 
L 59.71875 55.71875 
L 59.71875 67.09375 
L 38.28125 67.09375 
L 38.28125 5.171875 
L 47.609375 5.171875 
L 47.609375 0 
z
" id="DejaVuSerif-54"/>
      <path d="M 9.71875 68.015625 
Q 9.71875 70.265625 11.34375 71.921875 
Q 12.984375 73.578125 15.28125 73.578125 
Q 17.53125 73.578125 19.15625 71.921875 
Q 20.796875 70.265625 20.796875 68.015625 
Q 20.796875 65.71875 19.1875 64.109375 
Q 17.578125 62.5 15.28125 62.5 
Q 12.984375 62.5 11.34375 64.109375 
Q 9.71875 65.71875 9.71875 68.015625 
z
M 21.1875 5.171875 
L 29.6875 5.171875 
L 29.6875 0 
L 3.609375 0 
L 3.609375 5.171875 
L 12.203125 5.171875 
L 12.203125 46.6875 
L 3.609375 46.6875 
L 3.609375 51.90625 
L 21.1875 51.90625 
z
" id="DejaVuSerif-69"/>
      <path d="M 51.8125 41.796875 
Q 54.390625 47.515625 58.421875 50.421875 
Q 62.453125 53.328125 67.828125 53.328125 
Q 75.984375 53.328125 79.984375 48.265625 
Q 83.984375 43.21875 83.984375 33.015625 
L 83.984375 5.171875 
L 92.09375 5.171875 
L 92.09375 0 
L 67.1875 0 
L 67.1875 5.171875 
L 75 5.171875 
L 75 31.984375 
Q 75 39.9375 72.65625 43.3125 
Q 70.3125 46.6875 64.890625 46.6875 
Q 58.890625 46.6875 55.734375 42.140625 
Q 52.59375 37.59375 52.59375 28.90625 
L 52.59375 5.171875 
L 60.40625 5.171875 
L 60.40625 0 
L 35.796875 0 
L 35.796875 5.171875 
L 43.609375 5.171875 
L 43.609375 32.328125 
Q 43.609375 40.09375 41.265625 43.390625 
Q 38.921875 46.6875 33.5 46.6875 
Q 27.484375 46.6875 24.328125 42.140625 
Q 21.1875 37.59375 21.1875 28.90625 
L 21.1875 5.171875 
L 29 5.171875 
L 29 0 
L 4.109375 0 
L 4.109375 5.171875 
L 12.203125 5.171875 
L 12.203125 46.78125 
L 3.609375 46.78125 
L 3.609375 51.90625 
L 21.1875 51.90625 
L 21.1875 42.671875 
Q 23.6875 47.859375 27.53125 50.59375 
Q 31.390625 53.328125 36.28125 53.328125 
Q 42.328125 53.328125 46.375 50.3125 
Q 50.4375 47.3125 51.8125 41.796875 
z
" id="DejaVuSerif-6d"/>
      <path d="M 54.203125 25 
L 15.484375 25 
L 15.484375 24.609375 
Q 15.484375 14.109375 19.4375 8.765625 
Q 23.390625 3.421875 31.109375 3.421875 
Q 37.015625 3.421875 40.796875 6.515625 
Q 44.578125 9.625 46.09375 15.71875 
L 53.328125 15.71875 
Q 51.171875 7.171875 45.375 2.875 
Q 39.59375 -1.421875 30.171875 -1.421875 
Q 18.796875 -1.421875 11.890625 6.078125 
Q 4.984375 13.578125 4.984375 25.984375 
Q 4.984375 38.28125 11.765625 45.796875 
Q 18.5625 53.328125 29.59375 53.328125 
Q 41.359375 53.328125 47.65625 46.0625 
Q 53.953125 38.8125 54.203125 25 
z
M 43.609375 30.171875 
Q 43.3125 39.265625 39.765625 43.875 
Q 36.234375 48.484375 29.59375 48.484375 
Q 23.390625 48.484375 19.828125 43.84375 
Q 16.265625 39.203125 15.484375 30.171875 
z
" id="DejaVuSerif-65"/>
     </defs>
     <g style="fill:#264040;" transform="translate(749.555524 713.445565)scale(0.12 -0.12)">
      <use xlink:href="#DejaVuSerif-54"/>
      <use x="66.699219" xlink:href="#DejaVuSerif-69"/>
      <use x="98.681641" xlink:href="#DejaVuSerif-6d"/>
      <use x="193.505859" xlink:href="#DejaVuSerif-65"/>
     </g>
    </g>
   </g>
   <g id="matplotlib.axis_2">
    <g id="ytick_1">
     <g id="line2d_53">
      <path clip-path="url(#pe9dde3ea00)" d="M 95.117711 535.631372 
L 1434.317711 535.631372 
" style="fill:none;stroke:#ffffff;stroke-linecap:square;stroke-width:0.8;"/>
     </g>
     <g id="line2d_54">
      <defs>
       <path d="M 0 0 
L -3.5 0 
" id="mb870f2f672" style="stroke:#555555;stroke-width:0.8;"/>
      </defs>
      <g>
       <use style="fill:#555555;stroke:#555555;stroke-width:0.8;" x="95.117711" xlink:href="#mb870f2f672" y="535.631372"/>
      </g>
     </g>
     <g id="text_28">
      <!-- 10 -->
      <g style="fill:#555555;" transform="translate(75.392711 539.430591)scale(0.1 -0.1)">
       <use xlink:href="#DejaVuSans-31"/>
       <use x="63.623047" xlink:href="#DejaVuSans-30"/>
      </g>
     </g>
    </g>
    <g id="ytick_2">
     <g id="line2d_55">
      <path clip-path="url(#pe9dde3ea00)" d="M 95.117711 408.462541 
L 1434.317711 408.462541 
" style="fill:none;stroke:#ffffff;stroke-linecap:square;stroke-width:0.8;"/>
     </g>
     <g id="line2d_56">
      <g>
       <use style="fill:#555555;stroke:#555555;stroke-width:0.8;" x="95.117711" xlink:href="#mb870f2f672" y="408.462541"/>
      </g>
     </g>
     <g id="text_29">
      <!-- 15 -->
      <g style="fill:#555555;" transform="translate(75.392711 412.261759)scale(0.1 -0.1)">
       <use xlink:href="#DejaVuSans-31"/>
       <use x="63.623047" xlink:href="#DejaVuSans-35"/>
      </g>
     </g>
    </g>
    <g id="ytick_3">
     <g id="line2d_57">
      <path clip-path="url(#pe9dde3ea00)" d="M 95.117711 281.293709 
L 1434.317711 281.293709 
" style="fill:none;stroke:#ffffff;stroke-linecap:square;stroke-width:0.8;"/>
     </g>
     <g id="line2d_58">
      <g>
       <use style="fill:#555555;stroke:#555555;stroke-width:0.8;" x="95.117711" xlink:href="#mb870f2f672" y="281.293709"/>
      </g>
     </g>
     <g id="text_30">
      <!-- 20 -->
      <g style="fill:#555555;" transform="translate(75.392711 285.092928)scale(0.1 -0.1)">
       <use xlink:href="#DejaVuSans-32"/>
       <use x="63.623047" xlink:href="#DejaVuSans-30"/>
      </g>
     </g>
    </g>
    <g id="ytick_4">
     <g id="line2d_59">
      <path clip-path="url(#pe9dde3ea00)" d="M 95.117711 154.124878 
L 1434.317711 154.124878 
" style="fill:none;stroke:#ffffff;stroke-linecap:square;stroke-width:0.8;"/>
     </g>
     <g id="line2d_60">
      <g>
       <use style="fill:#555555;stroke:#555555;stroke-width:0.8;" x="95.117711" xlink:href="#mb870f2f672" y="154.124878"/>
      </g>
     </g>
     <g id="text_31">
      <!-- 25 -->
      <g style="fill:#555555;" transform="translate(75.392711 157.924097)scale(0.1 -0.1)">
       <use xlink:href="#DejaVuSans-32"/>
       <use x="63.623047" xlink:href="#DejaVuSans-35"/>
      </g>
     </g>
    </g>
    <g id="text_32">
     <!-- NO2 Reading -->
     <defs>
      <path d="M 4.890625 0 
L 4.890625 5.171875 
L 14.703125 5.171875 
L 14.703125 67.671875 
L 4.890625 67.671875 
L 4.890625 72.90625 
L 23.578125 72.90625 
L 67.28125 15.375 
L 67.28125 67.671875 
L 57.515625 67.671875 
L 57.515625 72.90625 
L 83.109375 72.90625 
L 83.109375 67.671875 
L 73.296875 67.671875 
L 73.296875 -1.421875 
L 67.390625 -1.421875 
L 20.703125 60.015625 
L 20.703125 5.171875 
L 30.515625 5.171875 
L 30.515625 0 
z
" id="DejaVuSerif-4e"/>
      <path d="M 41.015625 3.8125 
Q 52.984375 3.8125 59.078125 12.03125 
Q 65.1875 20.265625 65.1875 36.375 
Q 65.1875 52.546875 59.078125 60.765625 
Q 52.984375 69 41.015625 69 
Q 29 69 22.890625 60.765625 
Q 16.796875 52.546875 16.796875 36.375 
Q 16.796875 20.265625 22.890625 12.03125 
Q 29 3.8125 41.015625 3.8125 
z
M 41.015625 -1.421875 
Q 33.59375 -1.421875 27.359375 1.015625 
Q 21.140625 3.46875 16.40625 8.203125 
Q 10.9375 13.671875 8.265625 20.609375 
Q 5.609375 27.546875 5.609375 36.375 
Q 5.609375 45.21875 8.265625 52.171875 
Q 10.9375 59.125 16.40625 64.59375 
Q 21.1875 69.390625 27.34375 71.796875 
Q 33.5 74.21875 41.015625 74.21875 
Q 56.890625 74.21875 66.65625 63.8125 
Q 76.421875 53.421875 76.421875 36.375 
Q 76.421875 27.640625 73.734375 20.625 
Q 71.046875 13.625 65.578125 8.203125 
Q 60.796875 3.421875 54.640625 1 
Q 48.484375 -1.421875 41.015625 -1.421875 
z
" id="DejaVuSerif-4f"/>
      <path d="M 12.796875 55.515625 
L 7.328125 55.515625 
L 7.328125 68.5 
Q 12.546875 71.296875 17.84375 72.75 
Q 23.140625 74.21875 28.21875 74.21875 
Q 39.59375 74.21875 46.1875 68.703125 
Q 52.78125 63.1875 52.78125 53.71875 
Q 52.78125 43.015625 37.84375 28.125 
Q 36.671875 27 36.078125 26.421875 
L 17.671875 8.015625 
L 48.09375 8.015625 
L 48.09375 17 
L 53.8125 17 
L 53.8125 0 
L 6.78125 0 
L 6.78125 5.328125 
L 28.90625 27.390625 
Q 36.234375 34.71875 39.359375 40.84375 
Q 42.484375 46.96875 42.484375 53.71875 
Q 42.484375 61.078125 38.640625 65.234375 
Q 34.8125 69.390625 28.078125 69.390625 
Q 21.09375 69.390625 17.28125 65.921875 
Q 13.484375 62.453125 12.796875 55.515625 
z
" id="DejaVuSerif-32"/>
      <path id="DejaVuSerif-20"/>
      <path d="M 47.90625 36.1875 
Q 51.3125 35.25 53.78125 33.03125 
Q 56.25 30.8125 58.203125 26.8125 
L 68.796875 5.171875 
L 77.6875 5.171875 
L 77.6875 0 
L 60.5 0 
L 49.125 23.1875 
Q 45.84375 29.9375 43.109375 31.90625 
Q 40.375 33.890625 35.59375 33.890625 
L 24.703125 33.890625 
L 24.703125 5.171875 
L 35.015625 5.171875 
L 35.015625 0 
L 5.515625 0 
L 5.515625 5.171875 
L 14.796875 5.171875 
L 14.796875 67.671875 
L 5.515625 67.671875 
L 5.515625 72.90625 
L 42.484375 72.90625 
Q 53.125 72.90625 58.90625 67.828125 
Q 64.703125 62.75 64.703125 53.421875 
Q 64.703125 45.90625 60.46875 41.578125 
Q 56.25 37.25 47.90625 36.1875 
z
M 24.703125 39.109375 
L 39.109375 39.109375 
Q 46.484375 39.109375 50 42.59375 
Q 53.515625 46.09375 53.515625 53.421875 
Q 53.515625 60.75 50 64.203125 
Q 46.484375 67.671875 39.109375 67.671875 
L 24.703125 67.671875 
z
" id="DejaVuSerif-52"/>
      <path d="M 39.796875 16.3125 
L 39.796875 27.296875 
L 28.21875 27.296875 
Q 21.53125 27.296875 18.25 24.40625 
Q 14.984375 21.53125 14.984375 15.578125 
Q 14.984375 10.15625 18.296875 6.984375 
Q 21.625 3.8125 27.296875 3.8125 
Q 32.90625 3.8125 36.34375 7.28125 
Q 39.796875 10.75 39.796875 16.3125 
z
M 48.78125 32.421875 
L 48.78125 5.171875 
L 56.78125 5.171875 
L 56.78125 0 
L 39.796875 0 
L 39.796875 5.609375 
Q 36.8125 2 32.90625 0.28125 
Q 29 -1.421875 23.78125 -1.421875 
Q 15.140625 -1.421875 10.0625 3.171875 
Q 4.984375 7.765625 4.984375 15.578125 
Q 4.984375 23.640625 10.796875 28.078125 
Q 16.609375 32.515625 27.203125 32.515625 
L 39.796875 32.515625 
L 39.796875 36.078125 
Q 39.796875 42 36.203125 45.234375 
Q 32.625 48.484375 26.125 48.484375 
Q 20.75 48.484375 17.578125 46.046875 
Q 14.40625 43.609375 13.625 38.8125 
L 8.984375 38.8125 
L 8.984375 49.3125 
Q 13.671875 51.3125 18.09375 52.3125 
Q 22.515625 53.328125 26.703125 53.328125 
Q 37.5 53.328125 43.140625 47.96875 
Q 48.78125 42.625 48.78125 32.421875 
z
" id="DejaVuSerif-61"/>
      <path d="M 52.484375 5.171875 
L 61.078125 5.171875 
L 61.078125 0 
L 43.5 0 
L 43.5 8.109375 
Q 40.875 3.21875 36.796875 0.890625 
Q 32.71875 -1.421875 26.703125 -1.421875 
Q 17.140625 -1.421875 11.0625 6.171875 
Q 4.984375 13.765625 4.984375 25.984375 
Q 4.984375 38.1875 11.03125 45.75 
Q 17.09375 53.328125 26.703125 53.328125 
Q 32.71875 53.328125 36.796875 51 
Q 40.875 48.6875 43.5 43.796875 
L 43.5 70.796875 
L 35.015625 70.796875 
L 35.015625 75.984375 
L 52.484375 75.984375 
z
M 43.5 23.390625 
L 43.5 28.515625 
Q 43.5 37.84375 39.90625 42.765625 
Q 36.328125 47.703125 29.5 47.703125 
Q 22.5625 47.703125 19.015625 42.234375 
Q 15.484375 36.765625 15.484375 25.984375 
Q 15.484375 15.234375 19.015625 9.71875 
Q 22.5625 4.203125 29.5 4.203125 
Q 36.328125 4.203125 39.90625 9.109375 
Q 43.5 14.015625 43.5 23.390625 
z
" id="DejaVuSerif-64"/>
      <path d="M 4.109375 0 
L 4.109375 5.171875 
L 12.203125 5.171875 
L 12.203125 46.6875 
L 3.609375 46.6875 
L 3.609375 51.90625 
L 21.1875 51.90625 
L 21.1875 42.671875 
Q 23.6875 47.953125 27.65625 50.640625 
Q 31.640625 53.328125 36.921875 53.328125 
Q 45.515625 53.328125 49.5625 48.390625 
Q 53.609375 43.453125 53.609375 33.015625 
L 53.609375 5.171875 
L 61.625 5.171875 
L 61.625 0 
L 36.8125 0 
L 36.8125 5.171875 
L 44.578125 5.171875 
L 44.578125 30.171875 
Q 44.578125 39.703125 42.234375 43.234375 
Q 39.890625 46.78125 33.984375 46.78125 
Q 27.734375 46.78125 24.453125 42.203125 
Q 21.1875 37.640625 21.1875 28.90625 
L 21.1875 5.171875 
L 29 5.171875 
L 29 0 
z
" id="DejaVuSerif-6e"/>
      <path d="M 52.484375 46.6875 
L 52.484375 1.125 
Q 52.484375 -10.0625 46.328125 -16.140625 
Q 40.1875 -22.21875 28.8125 -22.21875 
Q 23.6875 -22.21875 19 -21.28125 
Q 14.3125 -20.359375 10.015625 -18.5 
L 10.015625 -7.625 
L 14.703125 -7.625 
Q 15.578125 -12.703125 18.84375 -15.046875 
Q 22.125 -17.390625 28.21875 -17.390625 
Q 36.140625 -17.390625 39.8125 -12.921875 
Q 43.5 -8.453125 43.5 1.125 
L 43.5 8.109375 
Q 40.875 3.21875 36.796875 0.890625 
Q 32.71875 -1.421875 26.703125 -1.421875 
Q 17.140625 -1.421875 11.0625 6.171875 
Q 4.984375 13.765625 4.984375 25.984375 
Q 4.984375 38.1875 11.03125 45.75 
Q 17.09375 53.328125 26.703125 53.328125 
Q 32.71875 53.328125 36.796875 51 
Q 40.875 48.6875 43.5 43.796875 
L 43.5 51.90625 
L 61.078125 51.90625 
L 61.078125 46.6875 
z
M 43.5 28.515625 
Q 43.5 37.84375 39.90625 42.765625 
Q 36.328125 47.703125 29.5 47.703125 
Q 22.5625 47.703125 19.015625 42.234375 
Q 15.484375 36.765625 15.484375 25.984375 
Q 15.484375 15.234375 19.015625 9.71875 
Q 22.5625 4.203125 29.5 4.203125 
Q 36.328125 4.203125 39.90625 9.109375 
Q 43.5 14.015625 43.5 23.390625 
z
" id="DejaVuSerif-67"/>
     </defs>
     <g style="fill:#264040;" transform="translate(56.726461 385.883437)rotate(-90)scale(0.12 -0.12)">
      <use xlink:href="#DejaVuSerif-4e"/>
      <use x="87.5" xlink:href="#DejaVuSerif-4f"/>
      <use x="169.482422" xlink:href="#DejaVuSerif-32"/>
      <use x="233.105469" xlink:href="#DejaVuSerif-20"/>
      <use x="264.892578" xlink:href="#DejaVuSerif-52"/>
      <use x="340.185547" xlink:href="#DejaVuSerif-65"/>
      <use x="399.365234" xlink:href="#DejaVuSerif-61"/>
      <use x="458.984375" xlink:href="#DejaVuSerif-64"/>
      <use x="522.998047" xlink:href="#DejaVuSerif-69"/>
      <use x="554.980469" xlink:href="#DejaVuSerif-6e"/>
      <use x="619.384766" xlink:href="#DejaVuSerif-67"/>
     </g>
    </g>
   </g>
   <g id="line2d_61">
    <path clip-path="url(#pe9dde3ea00)" d="M 155.990438 611.93267 
L 208.895754 611.93267 
L 261.830479 611.93267 
L 314.765203 611.93267 
L 367.714631 611.93267 
L 420.634651 611.93267 
L 473.569376 611.93267 
L 526.5041 611.93267 
L 579.438824 611.93267 
L 632.358844 611.93267 
L 685.293569 586.498904 
L 738.228293 586.498904 
L 791.177721 586.498904 
L 844.097741 586.498904 
L 897.032466 586.498904 
L 949.96719 586.498904 
L 1002.931322 611.93267 
L 1055.836638 611.93267 
L 1108.815475 611.93267 
L 1161.706087 611.93267 
L 1214.640811 611.93267 
L 1267.604944 611.93267 
L 1320.539668 611.93267 
L 1373.444984 611.93267 
" style="fill:none;stroke:#0000ff;stroke-linecap:square;"/>
   </g>
   <g id="line2d_62">
    <path clip-path="url(#pe9dde3ea00)" d="M 155.990438 459.330073 
L 208.895754 459.330073 
L 261.830479 433.896307 
L 314.765203 433.896307 
L 367.714631 408.462541 
L 420.634651 408.462541 
L 473.569376 408.462541 
L 526.5041 433.896307 
L 579.438824 433.896307 
L 632.358844 433.896307 
L 685.293569 433.896307 
L 738.228293 433.896307 
L 791.177721 408.462541 
L 844.097741 408.462541 
L 897.032466 433.896307 
L 949.96719 433.896307 
L 1002.931322 459.330073 
L 1055.836638 459.330073 
L 1108.815475 459.330073 
L 1161.706087 459.330073 
L 1214.640811 459.330073 
L 1267.604944 484.763839 
L 1320.539668 484.763839 
L 1373.444984 484.763839 
" style="fill:none;stroke:#008000;stroke-linecap:square;"/>
   </g>
   <g id="line2d_63">
    <path clip-path="url(#pe9dde3ea00)" d="M 155.990438 77.82358 
L 208.895754 77.82358 
L 261.830479 77.82358 
L 314.765203 77.82358 
L 367.714631 77.82358 
L 420.634651 77.82358 
L 473.569376 77.82358 
L 526.5041 77.82358 
L 579.438824 77.82358 
L 632.358844 77.82358 
L 685.293569 77.82358 
L 738.228293 77.82358 
L 791.177721 77.82358 
L 844.097741 77.82358 
L 897.032466 103.257346 
L 949.96719 103.257346 
L 1002.931322 103.257346 
L 1055.836638 103.257346 
L 1108.815475 103.257346 
L 1161.706087 103.257346 
L 1214.640811 103.257346 
L 1267.604944 103.257346 
L 1320.539668 103.257346 
L 1373.444984 103.257346 
" style="fill:none;stroke:#ff0000;stroke-linecap:square;"/>
   </g>
   <g id="patch_3">
    <path d="M 95.117711 638.638125 
L 95.117711 51.118125 
" style="fill:none;stroke:#ffffff;stroke-linecap:square;stroke-linejoin:miter;"/>
   </g>
   <g id="patch_4">
    <path d="M 1434.317711 638.638125 
L 1434.317711 51.118125 
" style="fill:none;stroke:#ffffff;stroke-linecap:square;stroke-linejoin:miter;"/>
   </g>
   <g id="patch_5">
    <path d="M 95.117711 638.638125 
L 1434.317711 638.638125 
" style="fill:none;stroke:#ffffff;stroke-linecap:square;stroke-linejoin:miter;"/>
   </g>
   <g id="patch_6">
    <path d="M 95.117711 51.118125 
L 1434.317711 51.118125 
" style="fill:none;stroke:#ffffff;stroke-linecap:square;stroke-linejoin:miter;"/>
   </g>
   <g id="text_33">
    <!-- NO2 at Sector-D Industrial Area, Mandideep - MPPCB, Mandideep, Madhya Pradesh, India -->
    <defs>
     <path d="M 10.796875 46.6875 
L 2.875 46.6875 
L 2.875 51.90625 
L 10.796875 51.90625 
L 10.796875 68.015625 
L 19.828125 68.015625 
L 19.828125 51.90625 
L 36.71875 51.90625 
L 36.71875 46.6875 
L 19.828125 46.6875 
L 19.828125 13.71875 
Q 19.828125 7.125 21.09375 5.265625 
Q 22.359375 3.421875 25.78125 3.421875 
Q 29.296875 3.421875 30.90625 5.484375 
Q 32.515625 7.5625 32.625 12.203125 
L 39.40625 12.203125 
Q 39.015625 5.125 35.546875 1.84375 
Q 32.078125 -1.421875 25 -1.421875 
Q 17.234375 -1.421875 14.015625 2.015625 
Q 10.796875 5.46875 10.796875 13.71875 
z
" id="DejaVuSerif-74"/>
     <path d="M 9.28125 3.515625 
L 9.28125 20.125 
L 14.890625 20.0625 
Q 15.140625 11.765625 19.703125 7.78125 
Q 24.265625 3.8125 33.59375 3.8125 
Q 42.28125 3.8125 46.84375 7.25 
Q 51.421875 10.6875 51.421875 17.28125 
Q 51.421875 22.5625 48.65625 25.390625 
Q 45.90625 28.21875 37.015625 30.90625 
L 27.390625 33.796875 
Q 16.9375 36.96875 12.671875 41.703125 
Q 8.40625 46.4375 8.40625 54.6875 
Q 8.40625 63.96875 14.984375 69.09375 
Q 21.578125 74.21875 33.5 74.21875 
Q 38.578125 74.21875 44.625 73.109375 
Q 50.6875 72.015625 57.515625 69.921875 
L 57.515625 54.390625 
L 52 54.390625 
Q 51.171875 62.109375 46.84375 65.546875 
Q 42.53125 69 33.6875 69 
Q 25.984375 69 21.953125 65.84375 
Q 17.921875 62.703125 17.921875 56.6875 
Q 17.921875 51.46875 20.9375 48.484375 
Q 23.96875 45.515625 33.796875 42.578125 
L 42.828125 39.890625 
Q 52.734375 36.921875 56.953125 32.296875 
Q 61.1875 27.6875 61.1875 19.921875 
Q 61.1875 9.328125 54.390625 3.953125 
Q 47.609375 -1.421875 34.1875 -1.421875 
Q 28.171875 -1.421875 21.9375 -0.1875 
Q 15.71875 1.03125 9.28125 3.515625 
z
" id="DejaVuSerif-53"/>
     <path d="M 51.421875 15.578125 
Q 49.515625 7.28125 44.09375 2.921875 
Q 38.671875 -1.421875 30.078125 -1.421875 
Q 18.75 -1.421875 11.859375 6.078125 
Q 4.984375 13.578125 4.984375 25.984375 
Q 4.984375 38.421875 11.859375 45.875 
Q 18.75 53.328125 30.078125 53.328125 
Q 35.015625 53.328125 39.890625 52.171875 
Q 44.78125 51.03125 49.703125 48.6875 
L 49.703125 35.40625 
L 44.484375 35.40625 
Q 43.453125 42.234375 40.015625 45.359375 
Q 36.578125 48.484375 30.171875 48.484375 
Q 22.90625 48.484375 19.1875 42.84375 
Q 15.484375 37.203125 15.484375 25.984375 
Q 15.484375 14.75 19.171875 9.078125 
Q 22.859375 3.421875 30.171875 3.421875 
Q 35.984375 3.421875 39.453125 6.4375 
Q 42.921875 9.46875 44.1875 15.578125 
z
" id="DejaVuSerif-63"/>
     <path d="M 30.078125 3.421875 
Q 37.3125 3.421875 40.984375 9.125 
Q 44.671875 14.84375 44.671875 25.984375 
Q 44.671875 37.109375 40.984375 42.796875 
Q 37.3125 48.484375 30.078125 48.484375 
Q 22.859375 48.484375 19.171875 42.796875 
Q 15.484375 37.109375 15.484375 25.984375 
Q 15.484375 14.84375 19.1875 9.125 
Q 22.90625 3.421875 30.078125 3.421875 
z
M 30.078125 -1.421875 
Q 18.75 -1.421875 11.859375 6.078125 
Q 4.984375 13.578125 4.984375 25.984375 
Q 4.984375 38.375 11.84375 45.84375 
Q 18.703125 53.328125 30.078125 53.328125 
Q 41.453125 53.328125 48.3125 45.84375 
Q 55.171875 38.375 55.171875 25.984375 
Q 55.171875 13.578125 48.3125 6.078125 
Q 41.453125 -1.421875 30.078125 -1.421875 
z
" id="DejaVuSerif-6f"/>
     <path d="M 47.796875 52 
L 47.796875 39.015625 
L 42.625 39.015625 
Q 42.390625 42.875 40.484375 44.78125 
Q 38.578125 46.6875 34.90625 46.6875 
Q 28.265625 46.6875 24.71875 42.09375 
Q 21.1875 37.5 21.1875 28.90625 
L 21.1875 5.171875 
L 31.59375 5.171875 
L 31.59375 0 
L 4.109375 0 
L 4.109375 5.171875 
L 12.203125 5.171875 
L 12.203125 46.78125 
L 3.609375 46.78125 
L 3.609375 51.90625 
L 21.1875 51.90625 
L 21.1875 42.671875 
Q 23.828125 48.09375 27.96875 50.703125 
Q 32.125 53.328125 38.09375 53.328125 
Q 40.28125 53.328125 42.703125 52.984375 
Q 45.125 52.640625 47.796875 52 
z
" id="DejaVuSerif-72"/>
     <path d="M 4.390625 30.609375 
L 29.390625 30.609375 
L 29.390625 23 
L 4.390625 23 
z
" id="DejaVuSerif-2d"/>
     <path d="M 24.703125 5.171875 
L 33.796875 5.171875 
Q 48 5.171875 55.59375 13.28125 
Q 63.1875 21.390625 63.1875 36.53125 
Q 63.1875 51.65625 55.609375 59.65625 
Q 48.046875 67.671875 33.796875 67.671875 
L 24.703125 67.671875 
z
M 5.515625 0 
L 5.515625 5.171875 
L 14.796875 5.171875 
L 14.796875 67.671875 
L 5.515625 67.671875 
L 5.515625 72.90625 
L 34.515625 72.90625 
Q 53.375 72.90625 63.890625 63.28125 
Q 74.421875 53.65625 74.421875 36.53125 
Q 74.421875 19.34375 63.875 9.671875 
Q 53.328125 0 34.515625 0 
z
" id="DejaVuSerif-44"/>
     <path d="M 24.703125 5.171875 
L 33.984375 5.171875 
L 33.984375 0 
L 5.515625 0 
L 5.515625 5.171875 
L 14.796875 5.171875 
L 14.796875 67.671875 
L 5.515625 67.671875 
L 5.515625 72.90625 
L 33.984375 72.90625 
L 33.984375 67.671875 
L 24.703125 67.671875 
z
" id="DejaVuSerif-49"/>
     <path d="M 35.40625 51.90625 
L 52.203125 51.90625 
L 52.203125 5.171875 
L 60.6875 5.171875 
L 60.6875 0 
L 43.21875 0 
L 43.21875 9.1875 
Q 40.71875 4 36.765625 1.28125 
Q 32.8125 -1.421875 27.59375 -1.421875 
Q 18.953125 -1.421875 14.875 3.484375 
Q 10.796875 8.40625 10.796875 18.890625 
L 10.796875 46.6875 
L 2.6875 46.6875 
L 2.6875 51.90625 
L 19.828125 51.90625 
L 19.828125 21.6875 
Q 19.828125 12.203125 22.140625 8.6875 
Q 24.46875 5.171875 30.421875 5.171875 
Q 36.671875 5.171875 39.9375 9.765625 
Q 43.21875 14.359375 43.21875 23.09375 
L 43.21875 46.6875 
L 35.40625 46.6875 
z
" id="DejaVuSerif-75"/>
     <path d="M 5.609375 2.875 
L 5.609375 14.984375 
L 10.796875 14.984375 
Q 10.984375 9.1875 14.421875 6.296875 
Q 17.875 3.421875 24.609375 3.421875 
Q 30.671875 3.421875 33.84375 5.6875 
Q 37.015625 7.953125 37.015625 12.3125 
Q 37.015625 15.71875 34.6875 17.8125 
Q 32.375 19.921875 24.90625 22.3125 
L 18.40625 24.515625 
Q 11.71875 26.65625 8.71875 29.875 
Q 5.71875 33.109375 5.71875 38.09375 
Q 5.71875 45.21875 10.9375 49.265625 
Q 16.15625 53.328125 25.390625 53.328125 
Q 29.5 53.328125 34.03125 52.25 
Q 38.578125 51.171875 43.40625 49.125 
L 43.40625 37.796875 
L 38.234375 37.796875 
Q 38.03125 42.828125 34.703125 45.65625 
Q 31.390625 48.484375 25.6875 48.484375 
Q 20.015625 48.484375 17.109375 46.484375 
Q 14.203125 44.484375 14.203125 40.484375 
Q 14.203125 37.203125 16.40625 35.21875 
Q 18.609375 33.25 25.203125 31.203125 
L 32.328125 29 
Q 39.703125 26.703125 42.9375 23.265625 
Q 46.1875 19.828125 46.1875 14.40625 
Q 46.1875 7.03125 40.546875 2.796875 
Q 34.90625 -1.421875 25 -1.421875 
Q 19.96875 -1.421875 15.1875 -0.34375 
Q 10.40625 0.734375 5.609375 2.875 
z
" id="DejaVuSerif-73"/>
     <path d="M 20.515625 5.171875 
L 29 5.171875 
L 29 0 
L 2.875 0 
L 2.875 5.171875 
L 11.53125 5.171875 
L 11.53125 70.796875 
L 2.875 70.796875 
L 2.875 75.984375 
L 20.515625 75.984375 
z
" id="DejaVuSerif-6c"/>
     <path d="M 20.015625 26.421875 
L 46.78125 26.421875 
L 33.40625 61.078125 
z
M -0.59375 0 
L -0.59375 5.171875 
L 5.8125 5.171875 
L 31.78125 72.90625 
L 39.984375 72.90625 
L 66.015625 5.171875 
L 73.1875 5.171875 
L 73.1875 0 
L 46.6875 0 
L 46.6875 5.171875 
L 54.78125 5.171875 
L 48.6875 21.1875 
L 18.015625 21.1875 
L 11.921875 5.171875 
L 19.921875 5.171875 
L 19.921875 0 
z
" id="DejaVuSerif-41"/>
     <path d="M 3.609375 -9.71875 
Q 8.203125 -6.34375 10.34375 -1.78125 
Q 12.5 2.78125 12.5 9.28125 
L 12.5 11.078125 
L 22.125 11.078125 
Q 21.734375 2.734375 18.1875 -3.25 
Q 14.65625 -9.234375 7.515625 -13.625 
z
" id="DejaVuSerif-2c"/>
     <path d="M 5.515625 0 
L 5.515625 5.171875 
L 14.796875 5.171875 
L 14.796875 67.671875 
L 4.984375 67.671875 
L 4.984375 72.90625 
L 26.21875 72.90625 
L 51.8125 21 
L 77.390625 72.90625 
L 97.3125 72.90625 
L 97.3125 67.671875 
L 87.59375 67.671875 
L 87.59375 5.171875 
L 96.921875 5.171875 
L 96.921875 0 
L 68.40625 0 
L 68.40625 5.171875 
L 77.6875 5.171875 
L 77.6875 61.53125 
L 52.6875 10.6875 
L 45.796875 10.6875 
L 20.796875 61.53125 
L 20.796875 5.171875 
L 30.078125 5.171875 
L 30.078125 0 
z
" id="DejaVuSerif-4d"/>
     <path d="M 20.515625 28.515625 
L 20.515625 23.390625 
Q 20.515625 14.015625 24.09375 9.109375 
Q 27.6875 4.203125 34.515625 4.203125 
Q 41.40625 4.203125 44.9375 9.71875 
Q 48.484375 15.234375 48.484375 25.984375 
Q 48.484375 36.765625 44.9375 42.234375 
Q 41.40625 47.703125 34.515625 47.703125 
Q 27.6875 47.703125 24.09375 42.765625 
Q 20.515625 37.84375 20.515625 28.515625 
z
M 11.53125 46.6875 
L 2.875 46.6875 
L 2.875 51.90625 
L 20.515625 51.90625 
L 20.515625 43.796875 
Q 23.140625 48.6875 27.21875 51 
Q 31.296875 53.328125 37.3125 53.328125 
Q 46.875 53.328125 52.921875 45.75 
Q 58.984375 38.1875 58.984375 25.984375 
Q 58.984375 13.765625 52.921875 6.171875 
Q 46.875 -1.421875 37.3125 -1.421875 
Q 31.296875 -1.421875 27.21875 0.890625 
Q 23.140625 3.21875 20.515625 8.109375 
L 20.515625 -15.578125 
L 29 -15.578125 
L 29 -20.796875 
L 2.875 -20.796875 
L 2.875 -15.578125 
L 11.53125 -15.578125 
z
" id="DejaVuSerif-70"/>
     <path d="M 24.703125 37.109375 
L 37.59375 37.109375 
Q 44.875 37.109375 48.671875 41.03125 
Q 52.484375 44.96875 52.484375 52.390625 
Q 52.484375 59.859375 48.671875 63.765625 
Q 44.875 67.671875 37.59375 67.671875 
L 24.703125 67.671875 
z
M 5.515625 0 
L 5.515625 5.171875 
L 14.796875 5.171875 
L 14.796875 67.671875 
L 5.515625 67.671875 
L 5.515625 72.90625 
L 39.984375 72.90625 
Q 50.921875 72.90625 57.3125 67.359375 
Q 63.71875 61.8125 63.71875 52.390625 
Q 63.71875 43.015625 57.3125 37.453125 
Q 50.921875 31.890625 39.984375 31.890625 
L 24.703125 31.890625 
L 24.703125 5.171875 
L 35.984375 5.171875 
L 35.984375 0 
z
" id="DejaVuSerif-50"/>
     <path d="M 70.515625 19.28125 
Q 67.28125 9.078125 59.6875 3.828125 
Q 52.09375 -1.421875 40.484375 -1.421875 
Q 33.34375 -1.421875 27.234375 1.015625 
Q 21.140625 3.46875 16.40625 8.203125 
Q 10.9375 13.671875 8.265625 20.625 
Q 5.609375 27.59375 5.609375 36.375 
Q 5.609375 53.375 15.421875 63.796875 
Q 25.25 74.21875 41.3125 74.21875 
Q 47.265625 74.21875 54 72.65625 
Q 60.75 71.09375 68.5 67.921875 
L 68.5 51.125 
L 62.984375 51.125 
Q 61.1875 60.296875 55.734375 64.640625 
Q 50.296875 69 40.484375 69 
Q 28.8125 69 22.796875 60.71875 
Q 16.796875 52.4375 16.796875 36.375 
Q 16.796875 20.359375 22.796875 12.078125 
Q 28.8125 3.8125 40.484375 3.8125 
Q 48.640625 3.8125 53.90625 7.6875 
Q 59.1875 11.578125 61.53125 19.28125 
z
" id="DejaVuSerif-43"/>
     <path d="M 24.703125 5.171875 
L 39.3125 5.171875 
Q 48.09375 5.171875 52.140625 8.984375 
Q 56.203125 12.796875 56.203125 21.09375 
Q 56.203125 29.34375 52.171875 33.125 
Q 48.140625 36.921875 39.3125 36.921875 
L 24.703125 36.921875 
z
M 24.703125 42.09375 
L 37.109375 42.09375 
Q 45.125 42.09375 48.796875 45.171875 
Q 52.484375 48.25 52.484375 54.890625 
Q 52.484375 61.578125 48.796875 64.625 
Q 45.125 67.671875 37.109375 67.671875 
L 24.703125 67.671875 
z
M 5.515625 0 
L 5.515625 5.171875 
L 14.796875 5.171875 
L 14.796875 67.671875 
L 5.515625 67.671875 
L 5.515625 72.90625 
L 41.5 72.90625 
Q 52.546875 72.90625 58.125 68.390625 
Q 63.71875 63.875 63.71875 54.890625 
Q 63.71875 48.390625 59.828125 44.53125 
Q 55.953125 40.671875 48.484375 39.796875 
Q 57.765625 38.625 62.578125 33.859375 
Q 67.390625 29.109375 67.390625 21.09375 
Q 67.390625 10.25 60.546875 5.125 
Q 53.71875 0 39.203125 0 
z
" id="DejaVuSerif-42"/>
     <path d="M 4.109375 0 
L 4.109375 5.171875 
L 12.203125 5.171875 
L 12.203125 70.796875 
L 3.609375 70.796875 
L 3.609375 75.984375 
L 21.1875 75.984375 
L 21.1875 42.671875 
Q 23.6875 47.953125 27.65625 50.640625 
Q 31.640625 53.328125 36.921875 53.328125 
Q 45.515625 53.328125 49.5625 48.390625 
Q 53.609375 43.453125 53.609375 33.015625 
L 53.609375 5.171875 
L 61.625 5.171875 
L 61.625 0 
L 36.8125 0 
L 36.8125 5.171875 
L 44.578125 5.171875 
L 44.578125 30.171875 
Q 44.578125 39.703125 42.25 43.1875 
Q 39.9375 46.6875 33.984375 46.6875 
Q 27.734375 46.6875 24.453125 42.140625 
Q 21.1875 37.59375 21.1875 28.90625 
L 21.1875 5.171875 
L 29 5.171875 
L 29 0 
z
" id="DejaVuSerif-68"/>
     <path d="M 21.578125 -9.515625 
L 25 -0.875 
L 5.609375 46.6875 
L -0.296875 46.6875 
L -0.296875 51.90625 
L 23.578125 51.90625 
L 23.578125 46.6875 
L 15.28125 46.6875 
L 29.890625 10.984375 
L 44.484375 46.6875 
L 36.71875 46.6875 
L 36.71875 51.90625 
L 56.203125 51.90625 
L 56.203125 46.6875 
L 50.390625 46.6875 
L 26.609375 -11.71875 
Q 24.171875 -17.78125 21.1875 -20 
Q 18.21875 -22.21875 12.796875 -22.21875 
Q 10.5 -22.21875 8.078125 -21.828125 
Q 5.671875 -21.4375 3.21875 -20.703125 
L 3.21875 -10.796875 
L 7.8125 -10.796875 
Q 8.109375 -14.109375 9.5 -15.546875 
Q 10.890625 -17 13.8125 -17 
Q 16.5 -17 18.140625 -15.5 
Q 19.78125 -14.015625 21.578125 -9.515625 
z
" id="DejaVuSerif-79"/>
    </defs>
    <g style="fill:#264040;" transform="translate(487.058336 45.118125)scale(0.12 -0.12)">
     <use xlink:href="#DejaVuSerif-4e"/>
     <use x="87.5" xlink:href="#DejaVuSerif-4f"/>
     <use x="169.482422" xlink:href="#DejaVuSerif-32"/>
     <use x="233.105469" xlink:href="#DejaVuSerif-20"/>
     <use x="264.892578" xlink:href="#DejaVuSerif-61"/>
     <use x="324.511719" xlink:href="#DejaVuSerif-74"/>
     <use x="364.697266" xlink:href="#DejaVuSerif-20"/>
     <use x="396.484375" xlink:href="#DejaVuSerif-53"/>
     <use x="464.990234" xlink:href="#DejaVuSerif-65"/>
     <use x="524.169922" xlink:href="#DejaVuSerif-63"/>
     <use x="580.175781" xlink:href="#DejaVuSerif-74"/>
     <use x="620.361328" xlink:href="#DejaVuSerif-6f"/>
     <use x="680.566406" xlink:href="#DejaVuSerif-72"/>
     <use x="728.369141" xlink:href="#DejaVuSerif-2d"/>
     <use x="762.158203" xlink:href="#DejaVuSerif-44"/>
     <use x="842.333984" xlink:href="#DejaVuSerif-20"/>
     <use x="874.121094" xlink:href="#DejaVuSerif-49"/>
     <use x="913.623047" xlink:href="#DejaVuSerif-6e"/>
     <use x="978.027344" xlink:href="#DejaVuSerif-64"/>
     <use x="1042.041016" xlink:href="#DejaVuSerif-75"/>
     <use x="1106.445312" xlink:href="#DejaVuSerif-73"/>
     <use x="1157.763672" xlink:href="#DejaVuSerif-74"/>
     <use x="1197.949219" xlink:href="#DejaVuSerif-72"/>
     <use x="1245.751953" xlink:href="#DejaVuSerif-69"/>
     <use x="1277.734375" xlink:href="#DejaVuSerif-61"/>
     <use x="1337.353516" xlink:href="#DejaVuSerif-6c"/>
     <use x="1369.335938" xlink:href="#DejaVuSerif-20"/>
     <use x="1401.123047" xlink:href="#DejaVuSerif-41"/>
     <use x="1473.339844" xlink:href="#DejaVuSerif-72"/>
     <use x="1521.142578" xlink:href="#DejaVuSerif-65"/>
     <use x="1580.322266" xlink:href="#DejaVuSerif-61"/>
     <use x="1639.941406" xlink:href="#DejaVuSerif-2c"/>
     <use x="1671.728516" xlink:href="#DejaVuSerif-20"/>
     <use x="1703.515625" xlink:href="#DejaVuSerif-4d"/>
     <use x="1805.908203" xlink:href="#DejaVuSerif-61"/>
     <use x="1865.527344" xlink:href="#DejaVuSerif-6e"/>
     <use x="1929.931641" xlink:href="#DejaVuSerif-64"/>
     <use x="1993.945312" xlink:href="#DejaVuSerif-69"/>
     <use x="2025.927734" xlink:href="#DejaVuSerif-64"/>
     <use x="2089.941406" xlink:href="#DejaVuSerif-65"/>
     <use x="2149.121094" xlink:href="#DejaVuSerif-65"/>
     <use x="2208.300781" xlink:href="#DejaVuSerif-70"/>
     <use x="2272.314453" xlink:href="#DejaVuSerif-20"/>
     <use x="2304.101562" xlink:href="#DejaVuSerif-2d"/>
     <use x="2337.890625" xlink:href="#DejaVuSerif-20"/>
     <use x="2369.677734" xlink:href="#DejaVuSerif-4d"/>
     <use x="2472.070312" xlink:href="#DejaVuSerif-50"/>
     <use x="2539.355469" xlink:href="#DejaVuSerif-50"/>
     <use x="2606.640625" xlink:href="#DejaVuSerif-43"/>
     <use x="2683.154297" xlink:href="#DejaVuSerif-42"/>
     <use x="2756.640625" xlink:href="#DejaVuSerif-2c"/>
     <use x="2788.427734" xlink:href="#DejaVuSerif-20"/>
     <use x="2820.214844" xlink:href="#DejaVuSerif-4d"/>
     <use x="2922.607422" xlink:href="#DejaVuSerif-61"/>
     <use x="2982.226562" xlink:href="#DejaVuSerif-6e"/>
     <use x="3046.630859" xlink:href="#DejaVuSerif-64"/>
     <use x="3110.644531" xlink:href="#DejaVuSerif-69"/>
     <use x="3142.626953" xlink:href="#DejaVuSerif-64"/>
     <use x="3206.640625" xlink:href="#DejaVuSerif-65"/>
     <use x="3265.820312" xlink:href="#DejaVuSerif-65"/>
     <use x="3325" xlink:href="#DejaVuSerif-70"/>
     <use x="3389.013672" xlink:href="#DejaVuSerif-2c"/>
     <use x="3420.800781" xlink:href="#DejaVuSerif-20"/>
     <use x="3452.587891" xlink:href="#DejaVuSerif-4d"/>
     <use x="3554.980469" xlink:href="#DejaVuSerif-61"/>
     <use x="3614.599609" xlink:href="#DejaVuSerif-64"/>
     <use x="3678.613281" xlink:href="#DejaVuSerif-68"/>
     <use x="3743.017578" xlink:href="#DejaVuSerif-79"/>
     <use x="3799.511719" xlink:href="#DejaVuSerif-61"/>
     <use x="3859.130859" xlink:href="#DejaVuSerif-20"/>
     <use x="3890.917969" xlink:href="#DejaVuSerif-50"/>
     <use x="3958.203125" xlink:href="#DejaVuSerif-72"/>
     <use x="4006.005859" xlink:href="#DejaVuSerif-61"/>
     <use x="4065.625" xlink:href="#DejaVuSerif-64"/>
     <use x="4129.638672" xlink:href="#DejaVuSerif-65"/>
     <use x="4188.818359" xlink:href="#DejaVuSerif-73"/>
     <use x="4240.136719" xlink:href="#DejaVuSerif-68"/>
     <use x="4304.541016" xlink:href="#DejaVuSerif-2c"/>
     <use x="4336.328125" xlink:href="#DejaVuSerif-20"/>
     <use x="4368.115234" xlink:href="#DejaVuSerif-49"/>
     <use x="4407.617188" xlink:href="#DejaVuSerif-6e"/>
     <use x="4472.021484" xlink:href="#DejaVuSerif-64"/>
     <use x="4536.035156" xlink:href="#DejaVuSerif-69"/>
     <use x="4568.017578" xlink:href="#DejaVuSerif-61"/>
    </g>
   </g>
   <g id="legend_1">
    <g id="patch_7">
     <path d="M 1301.831774 103.1525 
L 1427.317711 103.1525 
Q 1429.317711 103.1525 1429.317711 101.1525 
L 1429.317711 58.118125 
Q 1429.317711 56.118125 1427.317711 56.118125 
L 1301.831774 56.118125 
Q 1299.831774 56.118125 1299.831774 58.118125 
L 1299.831774 101.1525 
Q 1299.831774 103.1525 1301.831774 103.1525 
z
" style="fill:#e5e5e5;opacity:0.8;stroke:#cccccc;stroke-linejoin:miter;stroke-width:0.5;"/>
    </g>
    <g id="line2d_64">
     <path d="M 1303.831774 64.216562 
L 1323.831774 64.216562 
" style="fill:none;stroke:#0000ff;stroke-linecap:square;"/>
    </g>
    <g id="line2d_65"/>
    <g id="text_34">
     <!-- Minimum Reading -->
     <defs>
      <path d="M 54.890625 33.015625 
L 54.890625 0 
L 45.90625 0 
L 45.90625 32.71875 
Q 45.90625 40.484375 42.875 44.328125 
Q 39.84375 48.1875 33.796875 48.1875 
Q 26.515625 48.1875 22.3125 43.546875 
Q 18.109375 38.921875 18.109375 30.90625 
L 18.109375 0 
L 9.078125 0 
L 9.078125 54.6875 
L 18.109375 54.6875 
L 18.109375 46.1875 
Q 21.34375 51.125 25.703125 53.5625 
Q 30.078125 56 35.796875 56 
Q 45.21875 56 50.046875 50.171875 
Q 54.890625 44.34375 54.890625 33.015625 
z
" id="DejaVuSans-6e"/>
      <path d="M 52 44.1875 
Q 55.375 50.25 60.0625 53.125 
Q 64.75 56 71.09375 56 
Q 79.640625 56 84.28125 50.015625 
Q 88.921875 44.046875 88.921875 33.015625 
L 88.921875 0 
L 79.890625 0 
L 79.890625 32.71875 
Q 79.890625 40.578125 77.09375 44.375 
Q 74.3125 48.1875 68.609375 48.1875 
Q 61.625 48.1875 57.5625 43.546875 
Q 53.515625 38.921875 53.515625 30.90625 
L 53.515625 0 
L 44.484375 0 
L 44.484375 32.71875 
Q 44.484375 40.625 41.703125 44.40625 
Q 38.921875 48.1875 33.109375 48.1875 
Q 26.21875 48.1875 22.15625 43.53125 
Q 18.109375 38.875 18.109375 30.90625 
L 18.109375 0 
L 9.078125 0 
L 9.078125 54.6875 
L 18.109375 54.6875 
L 18.109375 46.1875 
Q 21.1875 51.21875 25.484375 53.609375 
Q 29.78125 56 35.6875 56 
Q 41.65625 56 45.828125 52.96875 
Q 50 49.953125 52 44.1875 
z
" id="DejaVuSans-6d"/>
      <path d="M 44.390625 34.1875 
Q 47.5625 33.109375 50.5625 29.59375 
Q 53.5625 26.078125 56.59375 19.921875 
L 66.609375 0 
L 56 0 
L 46.6875 18.703125 
Q 43.0625 26.03125 39.671875 28.421875 
Q 36.28125 30.8125 30.421875 30.8125 
L 19.671875 30.8125 
L 19.671875 0 
L 9.8125 0 
L 9.8125 72.90625 
L 32.078125 72.90625 
Q 44.578125 72.90625 50.734375 67.671875 
Q 56.890625 62.453125 56.890625 51.90625 
Q 56.890625 45.015625 53.6875 40.46875 
Q 50.484375 35.9375 44.390625 34.1875 
z
M 19.671875 64.796875 
L 19.671875 38.921875 
L 32.078125 38.921875 
Q 39.203125 38.921875 42.84375 42.21875 
Q 46.484375 45.515625 46.484375 51.90625 
Q 46.484375 58.296875 42.84375 61.546875 
Q 39.203125 64.796875 32.078125 64.796875 
z
" id="DejaVuSans-52"/>
      <path d="M 56.203125 29.59375 
L 56.203125 25.203125 
L 14.890625 25.203125 
Q 15.484375 15.921875 20.484375 11.0625 
Q 25.484375 6.203125 34.421875 6.203125 
Q 39.59375 6.203125 44.453125 7.46875 
Q 49.3125 8.734375 54.109375 11.28125 
L 54.109375 2.78125 
Q 49.265625 0.734375 44.1875 -0.34375 
Q 39.109375 -1.421875 33.890625 -1.421875 
Q 20.796875 -1.421875 13.15625 6.1875 
Q 5.515625 13.8125 5.515625 26.8125 
Q 5.515625 40.234375 12.765625 48.109375 
Q 20.015625 56 32.328125 56 
Q 43.359375 56 49.78125 48.890625 
Q 56.203125 41.796875 56.203125 29.59375 
z
M 47.21875 32.234375 
Q 47.125 39.59375 43.09375 43.984375 
Q 39.0625 48.390625 32.421875 48.390625 
Q 24.90625 48.390625 20.390625 44.140625 
Q 15.875 39.890625 15.1875 32.171875 
z
" id="DejaVuSans-65"/>
      <path d="M 34.28125 27.484375 
Q 23.390625 27.484375 19.1875 25 
Q 14.984375 22.515625 14.984375 16.5 
Q 14.984375 11.71875 18.140625 8.90625 
Q 21.296875 6.109375 26.703125 6.109375 
Q 34.1875 6.109375 38.703125 11.40625 
Q 43.21875 16.703125 43.21875 25.484375 
L 43.21875 27.484375 
z
M 52.203125 31.203125 
L 52.203125 0 
L 43.21875 0 
L 43.21875 8.296875 
Q 40.140625 3.328125 35.546875 0.953125 
Q 30.953125 -1.421875 24.3125 -1.421875 
Q 15.921875 -1.421875 10.953125 3.296875 
Q 6 8.015625 6 15.921875 
Q 6 25.140625 12.171875 29.828125 
Q 18.359375 34.515625 30.609375 34.515625 
L 43.21875 34.515625 
L 43.21875 35.40625 
Q 43.21875 41.609375 39.140625 45 
Q 35.0625 48.390625 27.6875 48.390625 
Q 23 48.390625 18.546875 47.265625 
Q 14.109375 46.140625 10.015625 43.890625 
L 10.015625 52.203125 
Q 14.9375 54.109375 19.578125 55.046875 
Q 24.21875 56 28.609375 56 
Q 40.484375 56 46.34375 49.84375 
Q 52.203125 43.703125 52.203125 31.203125 
z
" id="DejaVuSans-61"/>
      <path d="M 45.40625 46.390625 
L 45.40625 75.984375 
L 54.390625 75.984375 
L 54.390625 0 
L 45.40625 0 
L 45.40625 8.203125 
Q 42.578125 3.328125 38.25 0.953125 
Q 33.9375 -1.421875 27.875 -1.421875 
Q 17.96875 -1.421875 11.734375 6.484375 
Q 5.515625 14.40625 5.515625 27.296875 
Q 5.515625 40.1875 11.734375 48.09375 
Q 17.96875 56 27.875 56 
Q 33.9375 56 38.25 53.625 
Q 42.578125 51.265625 45.40625 46.390625 
z
M 14.796875 27.296875 
Q 14.796875 17.390625 18.875 11.75 
Q 22.953125 6.109375 30.078125 6.109375 
Q 37.203125 6.109375 41.296875 11.75 
Q 45.40625 17.390625 45.40625 27.296875 
Q 45.40625 37.203125 41.296875 42.84375 
Q 37.203125 48.484375 30.078125 48.484375 
Q 22.953125 48.484375 18.875 42.84375 
Q 14.796875 37.203125 14.796875 27.296875 
z
" id="DejaVuSans-64"/>
      <path d="M 45.40625 27.984375 
Q 45.40625 37.75 41.375 43.109375 
Q 37.359375 48.484375 30.078125 48.484375 
Q 22.859375 48.484375 18.828125 43.109375 
Q 14.796875 37.75 14.796875 27.984375 
Q 14.796875 18.265625 18.828125 12.890625 
Q 22.859375 7.515625 30.078125 7.515625 
Q 37.359375 7.515625 41.375 12.890625 
Q 45.40625 18.265625 45.40625 27.984375 
z
M 54.390625 6.78125 
Q 54.390625 -7.171875 48.1875 -13.984375 
Q 42 -20.796875 29.203125 -20.796875 
Q 24.46875 -20.796875 20.265625 -20.09375 
Q 16.0625 -19.390625 12.109375 -17.921875 
L 12.109375 -9.1875 
Q 16.0625 -11.328125 19.921875 -12.34375 
Q 23.78125 -13.375 27.78125 -13.375 
Q 36.625 -13.375 41.015625 -8.765625 
Q 45.40625 -4.15625 45.40625 5.171875 
L 45.40625 9.625 
Q 42.625 4.78125 38.28125 2.390625 
Q 33.9375 0 27.875 0 
Q 17.828125 0 11.671875 7.65625 
Q 5.515625 15.328125 5.515625 27.984375 
Q 5.515625 40.671875 11.671875 48.328125 
Q 17.828125 56 27.875 56 
Q 33.9375 56 38.28125 53.609375 
Q 42.625 51.21875 45.40625 46.390625 
L 45.40625 54.6875 
L 54.390625 54.6875 
z
" id="DejaVuSans-67"/>
     </defs>
     <g transform="translate(1331.831774 67.716562)scale(0.1 -0.1)">
      <use xlink:href="#DejaVuSans-4d"/>
      <use x="86.279297" xlink:href="#DejaVuSans-69"/>
      <use x="114.0625" xlink:href="#DejaVuSans-6e"/>
      <use x="177.441406" xlink:href="#DejaVuSans-69"/>
      <use x="205.224609" xlink:href="#DejaVuSans-6d"/>
      <use x="302.636719" xlink:href="#DejaVuSans-75"/>
      <use x="366.015625" xlink:href="#DejaVuSans-6d"/>
      <use x="463.427734" xlink:href="#DejaVuSans-20"/>
      <use x="495.214844" xlink:href="#DejaVuSans-52"/>
      <use x="564.634766" xlink:href="#DejaVuSans-65"/>
      <use x="626.158203" xlink:href="#DejaVuSans-61"/>
      <use x="687.4375" xlink:href="#DejaVuSans-64"/>
      <use x="750.914062" xlink:href="#DejaVuSans-69"/>
      <use x="778.697266" xlink:href="#DejaVuSans-6e"/>
      <use x="842.076172" xlink:href="#DejaVuSans-67"/>
     </g>
    </g>
    <g id="line2d_66">
     <path d="M 1303.831774 78.894687 
L 1323.831774 78.894687 
" style="fill:none;stroke:#008000;stroke-linecap:square;"/>
    </g>
    <g id="line2d_67"/>
    <g id="text_35">
     <!-- Average Reading -->
     <defs>
      <path d="M 2.984375 54.6875 
L 12.5 54.6875 
L 29.59375 8.796875 
L 46.6875 54.6875 
L 56.203125 54.6875 
L 35.6875 0 
L 23.484375 0 
z
" id="DejaVuSans-76"/>
     </defs>
     <g transform="translate(1331.831774 82.394687)scale(0.1 -0.1)">
      <use xlink:href="#DejaVuSans-41"/>
      <use x="68.330078" xlink:href="#DejaVuSans-76"/>
      <use x="127.509766" xlink:href="#DejaVuSans-65"/>
      <use x="189.033203" xlink:href="#DejaVuSans-72"/>
      <use x="230.146484" xlink:href="#DejaVuSans-61"/>
      <use x="291.425781" xlink:href="#DejaVuSans-67"/>
      <use x="354.902344" xlink:href="#DejaVuSans-65"/>
      <use x="416.425781" xlink:href="#DejaVuSans-20"/>
      <use x="448.212891" xlink:href="#DejaVuSans-52"/>
      <use x="517.632812" xlink:href="#DejaVuSans-65"/>
      <use x="579.15625" xlink:href="#DejaVuSans-61"/>
      <use x="640.435547" xlink:href="#DejaVuSans-64"/>
      <use x="703.912109" xlink:href="#DejaVuSans-69"/>
      <use x="731.695312" xlink:href="#DejaVuSans-6e"/>
      <use x="795.074219" xlink:href="#DejaVuSans-67"/>
     </g>
    </g>
    <g id="line2d_68">
     <path d="M 1303.831774 93.572812 
L 1323.831774 93.572812 
" style="fill:none;stroke:#ff0000;stroke-linecap:square;"/>
    </g>
    <g id="line2d_69"/>
    <g id="text_36">
     <!-- Maximum Reading -->
     <defs>
      <path d="M 54.890625 54.6875 
L 35.109375 28.078125 
L 55.90625 0 
L 45.3125 0 
L 29.390625 21.484375 
L 13.484375 0 
L 2.875 0 
L 24.125 28.609375 
L 4.6875 54.6875 
L 15.28125 54.6875 
L 29.78125 35.203125 
L 44.28125 54.6875 
z
" id="DejaVuSans-78"/>
     </defs>
     <g transform="translate(1331.831774 97.072812)scale(0.1 -0.1)">
      <use xlink:href="#DejaVuSans-4d"/>
      <use x="86.279297" xlink:href="#DejaVuSans-61"/>
      <use x="147.558594" xlink:href="#DejaVuSans-78"/>
      <use x="206.738281" xlink:href="#DejaVuSans-69"/>
      <use x="234.521484" xlink:href="#DejaVuSans-6d"/>
      <use x="331.933594" xlink:href="#DejaVuSans-75"/>
      <use x="395.3125" xlink:href="#DejaVuSans-6d"/>
      <use x="492.724609" xlink:href="#DejaVuSans-20"/>
      <use x="524.511719" xlink:href="#DejaVuSans-52"/>
      <use x="593.931641" xlink:href="#DejaVuSans-65"/>
      <use x="655.455078" xlink:href="#DejaVuSans-61"/>
      <use x="716.734375" xlink:href="#DejaVuSans-64"/>
      <use x="780.210938" xlink:href="#DejaVuSans-69"/>
      <use x="807.994141" xlink:href="#DejaVuSans-6e"/>
      <use x="871.373047" xlink:href="#DejaVuSans-67"/>
     </g>
    </g>
   </g>
  </g>
 </g>
 <defs>
  <clipPath id="pe9dde3ea00">
   <rect height="587.52" width="1339.2" x="95.117711" y="51.118125"/>
  </clipPath>
 </defs>
</svg>
